<?xml version="1.0" encoding="UTF-8" standalone="no"?>
<!DOCTYPE svg PUBLIC "-//W3C//DTD SVG 1.1//EN"
 "http://www.w3.org/Graphics/SVG/1.1/DTD/svg11.dtd">
<!-- Generated by graphviz version 2.43.0 (0)
 -->
<!-- Title: application_state_diagram Pages: 1 -->
<svg width="1548pt" height="482pt"
 viewBox="0.00 0.00 1548.22 482.00" xmlns="http://www.w3.org/2000/svg" xmlns:xlink="http://www.w3.org/1999/xlink">
<g id="graph0" class="graph" transform="scale(1 1) rotate(0) translate(4 478)">
<title>application_state_diagram</title>
<g id="a_graph0"><a xlink:href="index.html" xlink:title="MaAlps" target="_parent">
<polygon fill="white" stroke="transparent" points="-4,4 -4,-478 1544.22,-478 1544.22,4 -4,4"/>
<text text-anchor="middle" x="770.11" y="-458.8" font-family="Helvetica,sans-Serif" font-size="14.00">MaAlps</text>
</a>
</g>
<!-- AlpsItem -->
<g id="node1" class="node">
<title>AlpsItem</title>
<g id="a_node1"><a xlink:href="docs/semantic.AlpsItem.html" xlink:title="&lt;TABLE&gt;" target="_parent">
<polygon fill="lightgray" stroke="black" stroke-width="2" points="966.72,-451 865.72,-451 865.72,-319 966.72,-319 966.72,-451"/>
<text text-anchor="start" x="884.72" y="-433.8" font-family="Times,serif" font-size="14.00">AlpsItem</text>
<text text-anchor="start" x="904.22" y="-418.8" font-family="Times,serif" font-size="14.00">(id)</text>
<text text-anchor="start" x="883.22" y="-403.8" font-family="Times,serif" font-size="14.00">(isPublic)</text>
<text text-anchor="start" x="896.72" y="-388.8" font-family="Times,serif" font-size="14.00">(title)</text>
<text text-anchor="start" x="895.22" y="-373.8" font-family="Times,serif" font-size="14.00">(user)</text>
<text text-anchor="start" x="887.22" y="-358.8" font-family="Times,serif" font-size="14.00">(asdUrl)</text>
<text text-anchor="start" x="876.72" y="-343.8" font-family="Times,serif" font-size="14.00">(profileUrl)</text>
<text text-anchor="start" x="872.22" y="-328.8" font-family="Times,serif" font-size="14.00">(mediaType)</text>
</a>
</g>
</g>
<!-- AlpsItemEdit -->
<g id="node2" class="node">
<title>AlpsItemEdit</title>
<g id="a_node2"><a xlink:href="docs/semantic.AlpsItemEdit.html" xlink:title="&lt;TABLE&gt;" target="_parent">
<polygon fill="lightgray" stroke="black" stroke-width="2" points="834.22,-42 728.22,-42 728.22,0 834.22,0 834.22,-42"/>
<text text-anchor="start" x="734.22" y="-24.8" font-family="Times,serif" font-size="14.00">AlpsItemEdit</text>
<text text-anchor="start" x="743.72" y="-9.8" font-family="Times,serif" font-size="14.00">(AlpsItem)</text>
</a>
</g>
</g>
<!-- AlpsItem&#45;&gt;AlpsItemEdit -->
<g id="edge1" class="edge">
<title>AlpsItem&#45;&gt;AlpsItemEdit</title>
<g id="a_edge1"><a xlink:href="docs/safe.goAlpsItemEdit.html" xlink:title="goAlpsItemEdit, edit&#45;form (safe)" target="_parent">
<path fill="none" stroke="black" d="M865.48,-382.13C693.12,-374.6 134.86,-340.3 27.22,-209 -55.89,-107.62 68.35,-126.04 188.22,-92 375.88,-38.7 608.07,-25.94 717.93,-22.91"/>
<polygon fill="black" stroke="black" points="718.26,-26.41 728.17,-22.65 718.08,-19.41 718.26,-26.41"/>
</a>
</g>
<g id="a_edge1&#45;label"><a xlink:href="docs/safe.goAlpsItemEdit.html" xlink:title="goAlpsItemEdit, edit&#45;form (safe)" target="_parent">
<text text-anchor="start" x="27.22" y="-184.6" font-family="Times,serif" font-size="13.00">goAlpsItemEdit, edit&#45;form (safe)</text>
</a>
</g>
</g>
<!-- Index -->
<g id="node3" class="node">
<title>Index</title>
<g id="a_node3"><a xlink:href="docs/semantic.Index.html" xlink:title="&lt;TABLE&gt;" target="_parent">
<polygon fill="lightgray" stroke="black" stroke-width="2" points="557.72,-269 478.72,-269 478.72,-227 557.72,-227 557.72,-269"/>
<text text-anchor="start" x="498.72" y="-251.8" font-family="Times,serif" font-size="14.00">Index</text>
<text text-anchor="start" x="485.22" y="-236.8" font-family="Times,serif" font-size="14.00">(alpsList)</text>
</a>
</g>
</g>
<!-- AlpsItem&#45;&gt;Index -->
<g id="edge4" class="edge">
<title>AlpsItem&#45;&gt;Index</title>
<g id="a_edge4"><a xlink:href="docs/safe.goIndex.html" xlink:title="goIndex, collection (safe)" target="_parent">
<path fill="none" stroke="black" d="M865.59,-381.79C763.95,-376.19 540.76,-357.59 494.22,-301 488.62,-294.19 489.78,-285.87 493.68,-277.89"/>
<polygon fill="black" stroke="black" points="496.81,-279.48 499.04,-269.13 490.84,-275.83 496.81,-279.48"/>
</a>
</g>
<g id="a_edge4&#45;label"><a xlink:href="docs/safe.goIndex.html" xlink:title="goIndex, collection (safe)" target="_parent">
<text text-anchor="start" x="494.22" y="-290.6" font-family="Times,serif" font-size="13.00">goIndex, collection (safe)</text>
</a>
</g>
</g>
<!-- Profile -->
<g id="node4" class="node">
<title>Profile</title>
<g id="a_node4"><a xlink:href="docs/semantic.Profile.html" xlink:title="&lt;TABLE&gt;" target="_parent">
<polygon fill="lightgray" stroke="black" stroke-width="2" points="820.72,-149 741.72,-149 741.72,-92 820.72,-92 820.72,-149"/>
<text text-anchor="start" x="758.22" y="-131.3" font-family="Times,serif" font-size="14.00">Profile</text>
<text text-anchor="start" x="748.22" y="-116.3" font-family="Times,serif" font-size="14.00">(alpsList)</text>
<text text-anchor="start" x="760.22" y="-101.3" font-family="Times,serif" font-size="14.00">(user)</text>
</a>
</g>
</g>
<!-- AlpsItem&#45;&gt;Profile -->
<g id="edge5" class="edge">
<title>AlpsItem&#45;&gt;Profile</title>
<path fill="none" stroke="black" d="M966.9,-377.29C1043.85,-365.94 1184.38,-340.29 1214.22,-301 1227.03,-284.14 1240.97,-267.66 1202.22,-227 1151.2,-173.46 930.88,-140 830.9,-127.3"/>
<polygon fill="black" stroke="black" points="831.11,-123.8 820.75,-126.03 830.24,-130.75 831.11,-123.8"/>
<g id="a_edge5_0"><a xlink:href="docs/idempotent.doDelete.html" xlink:title="&lt;TABLE&gt;">
<text text-anchor="start" x="1231.22" y="-254.6" font-family="Times,serif" font-size="13.00">doDelete (idempotent)</text>
</a>
</g>
<g id="a_edge5_1"><a xlink:href="docs/safe.goProfile.html" xlink:title="&lt;TABLE&gt;">
<text text-anchor="start" x="1231.22" y="-234.6" font-family="Times,serif" font-size="13.00">goProfile (safe)</text>
</a>
</g>
</g>
<!-- AlpsProfile -->
<g id="node5" class="node">
<title>AlpsProfile</title>
<g id="a_node5"><a xlink:href="docs/semantic.AlpsProfile.html" xlink:title="AlpsProfile" target="_parent">
<polygon fill="lightgray" stroke="black" stroke-width="2" points="1121.22,-266 1027.22,-266 1027.22,-230 1121.22,-230 1121.22,-266"/>
<text text-anchor="middle" x="1074.22" y="-244.3" font-family="Times,serif" font-size="14.00">AlpsProfile</text>
</a>
</g>
</g>
<!-- AlpsItem&#45;&gt;AlpsProfile -->
<g id="edge2" class="edge">
<title>AlpsItem&#45;&gt;AlpsProfile</title>
<g id="a_edge2"><a xlink:href="docs/safe.goAlpsProfile.html" xlink:title="goAlpsProfile (safe)" target="_parent">
<path fill="none" stroke="black" d="M951.17,-318.96C959.55,-307.25 969.29,-295.94 980.22,-287 986.77,-281.64 1001.65,-274.95 1017.69,-268.68"/>
<polygon fill="black" stroke="black" points="1019.12,-271.88 1027.21,-265.05 1016.62,-265.34 1019.12,-271.88"/>
</a>
</g>
<g id="a_edge2&#45;label"><a xlink:href="docs/safe.goAlpsProfile.html" xlink:title="goAlpsProfile (safe)" target="_parent">
<text text-anchor="start" x="980.22" y="-290.6" font-family="Times,serif" font-size="13.00">goAlpsProfile (safe)</text>
</a>
</g>
</g>
<!-- Asd -->
<g id="node6" class="node">
<title>Asd</title>
<g id="a_node6"><a xlink:href="docs/semantic.Asd.html" xlink:title="Asd" target="_parent">
<polygon fill="lightgray" stroke="black" stroke-width="2" points="1193.22,-266 1139.22,-266 1139.22,-230 1193.22,-230 1193.22,-266"/>
<text text-anchor="middle" x="1166.22" y="-244.3" font-family="Times,serif" font-size="14.00">Asd</text>
</a>
</g>
</g>
<!-- AlpsItem&#45;&gt;Asd -->
<g id="edge3" class="edge">
<title>AlpsItem&#45;&gt;Asd</title>
<g id="a_edge3"><a xlink:href="docs/safe.goAsd.html" xlink:title="goAsd (safe)" target="_parent">
<path fill="none" stroke="black" d="M966.81,-367.78C1007.41,-353.51 1064.91,-330.45 1110.22,-301 1122.16,-293.24 1133.93,-282.85 1143.57,-273.4"/>
<polygon fill="black" stroke="black" points="1146.26,-275.65 1150.81,-266.08 1141.29,-270.73 1146.26,-275.65"/>
</a>
</g>
<g id="a_edge3&#45;label"><a xlink:href="docs/safe.goAsd.html" xlink:title="goAsd (safe)" target="_parent">
<text text-anchor="start" x="1128.22" y="-290.6" font-family="Times,serif" font-size="13.00">goAsd (safe)</text>
</a>
</g>
</g>
<!-- AlpsItemEdit&#45;&gt;AlpsItem -->
<g id="edge6" class="edge">
<title>AlpsItemEdit&#45;&gt;AlpsItem</title>
<g id="a_edge6"><a xlink:href="docs/idempotent.doEdit.html" xlink:title="doEdit, edit (idempotent)" target="_parent">
<path fill="none" stroke="black" d="M834.44,-27.74C879.08,-33.4 944.18,-43.6 999.22,-60 1179.15,-113.6 1283.99,-70.19 1387.22,-227 1397.48,-242.59 1398.75,-254.32 1387.22,-269 1336.82,-333.18 1092.57,-366.11 977.03,-378.31"/>
<polygon fill="black" stroke="black" points="976.51,-374.85 966.93,-379.36 977.23,-381.81 976.51,-374.85"/>
</a>
</g>
<g id="a_edge6&#45;label"><a xlink:href="docs/idempotent.doEdit.html" xlink:title="doEdit, edit (idempotent)" target="_parent">
<text text-anchor="start" x="1372.22" y="-184.6" font-family="Times,serif" font-size="13.00">doEdit, edit (idempotent)</text>
</a>
</g>
</g>
<!-- Index&#45;&gt;AlpsItem -->
<g id="edge7" class="edge">
<title>Index&#45;&gt;AlpsItem</title>
<g id="a_edge7"><a xlink:href="docs/safe.goAlpsItem.html" xlink:title="goAlpsItem, item (safe)" target="_parent">
<path fill="none" stroke="black" d="M557.74,-256.21C587.25,-262.36 628.2,-272.52 662.22,-287 673.23,-291.69 674.42,-295.84 685.22,-301 741.22,-327.76 808.26,-350.94 855.67,-365.95"/>
<polygon fill="black" stroke="black" points="854.88,-369.37 865.47,-369.02 856.98,-362.69 854.88,-369.37"/>
</a>
</g>
<g id="a_edge7&#45;label"><a xlink:href="docs/safe.goAlpsItem.html" xlink:title="goAlpsItem, item (safe)" target="_parent">
<text text-anchor="start" x="685.22" y="-290.6" font-family="Times,serif" font-size="13.00">goAlpsItem, item (safe)</text>
</a>
</g>
</g>
<!-- Index&#45;&gt;Profile -->
<g id="edge8" class="edge">
<title>Index&#45;&gt;Profile</title>
<path fill="none" stroke="black" d="M557.93,-247.07C594.84,-245.21 649.63,-237.31 687.22,-209 704.22,-196.2 695.7,-182.56 710.22,-167 716.89,-159.85 724.92,-153.33 733.13,-147.61"/>
<polygon fill="black" stroke="black" points="735.31,-150.37 741.72,-141.93 731.45,-144.53 735.31,-150.37"/>
<g id="a_edge8_2"><a xlink:href="docs/safe.goMyProfile.html" xlink:title="&lt;TABLE&gt;">
<text text-anchor="start" x="714.22" y="-194.6" font-family="Times,serif" font-size="13.00">goMyProfile (safe)</text>
</a>
</g>
<g id="a_edge8_3"><a xlink:href="docs/safe.goProfile.html" xlink:title="&lt;TABLE&gt;">
<text text-anchor="start" x="714.22" y="-174.6" font-family="Times,serif" font-size="13.00">goProfile (safe)</text>
</a>
</g>
</g>
<!-- StateDiagram -->
<g id="node7" class="node">
<title>StateDiagram</title>
<g id="a_node7"><a xlink:href="docs/semantic.StateDiagram.html" xlink:title="StateDiagram" target="_parent">
<polygon fill="lightgray" stroke="black" stroke-width="2" points="313.22,-138.5 197.22,-138.5 197.22,-102.5 313.22,-102.5 313.22,-138.5"/>
<text text-anchor="middle" x="255.22" y="-116.8" font-family="Times,serif" font-size="14.00">StateDiagram</text>
</a>
</g>
</g>
<!-- Index&#45;&gt;StateDiagram -->
<g id="edge9" class="edge">
<title>Index&#45;&gt;StateDiagram</title>
<g id="a_edge9"><a xlink:href="docs/idempotent.doCreateStateDiagram.html" xlink:title="doCreateStateDiagram (idempotent)" target="_parent">
<path fill="none" stroke="black" d="M478.61,-247.26C412.64,-246.76 284.68,-241.51 256.22,-209 242.04,-192.8 243.25,-167.71 247.16,-148.55"/>
<polygon fill="black" stroke="black" points="250.62,-149.14 249.53,-138.6 243.81,-147.52 250.62,-149.14"/>
</a>
</g>
<g id="a_edge9&#45;label"><a xlink:href="docs/idempotent.doCreateStateDiagram.html" xlink:title="doCreateStateDiagram (idempotent)" target="_parent">
<text text-anchor="start" x="256.22" y="-184.6" font-family="Times,serif" font-size="13.00">doCreateStateDiagram (idempotent)</text>
</a>
</g>
</g>
<!-- Profile&#45;&gt;AlpsItem -->
<g id="edge10" class="edge">
<title>Profile&#45;&gt;AlpsItem</title>
<g id="a_edge10"><a xlink:href="docs/safe.goAlpsItem.html" xlink:title="goAlpsItem, item (safe)" target="_parent">
<path fill="none" stroke="black" d="M820.78,-145.81C828.16,-151.92 835.14,-159.04 840.22,-167 865.21,-206.18 848.3,-224.99 863.22,-269 867.78,-282.45 873.41,-296.43 879.29,-309.82"/>
<polygon fill="black" stroke="black" points="876.11,-311.29 883.38,-318.99 882.5,-308.43 876.11,-311.29"/>
</a>
</g>
<g id="a_edge10&#45;label"><a xlink:href="docs/safe.goAlpsItem.html" xlink:title="goAlpsItem, item (safe)" target="_parent">
<text text-anchor="start" x="863.22" y="-244.6" font-family="Times,serif" font-size="13.00">goAlpsItem, item (safe)</text>
</a>
</g>
</g>
<!-- Profile&#45;&gt;AlpsItemEdit -->
<g id="edge11" class="edge">
<title>Profile&#45;&gt;AlpsItemEdit</title>
<g id="a_edge11"><a xlink:href="docs/safe.goAlpsItemEdit.html" xlink:title="goAlpsItemEdit, edit&#45;form (safe)" target="_parent">
<path fill="none" stroke="black" d="M781.22,-91.82C781.22,-79.51 781.22,-64.97 781.22,-52.36"/>
<polygon fill="black" stroke="black" points="784.72,-52.31 781.22,-42.31 777.72,-52.31 784.72,-52.31"/>
</a>
</g>
<g id="a_edge11&#45;label"><a xlink:href="docs/safe.goAlpsItemEdit.html" xlink:title="goAlpsItemEdit, edit&#45;form (safe)" target="_parent">
<text text-anchor="start" x="781.22" y="-63.6" font-family="Times,serif" font-size="13.00">goAlpsItemEdit, edit&#45;form (safe)</text>
</a>
</g>
</g>
<!-- Profile&#45;&gt;Index -->
<g id="edge12" class="edge">
<title>Profile&#45;&gt;Index</title>
<g id="a_edge12"><a xlink:href="docs/safe.goIndex.html" xlink:title="goIndex, collection (safe)" target="_parent">
<path fill="none" stroke="black" d="M741.7,-122.27C674.8,-124.51 543.73,-133.2 515.22,-167 503.79,-180.55 504.49,-200.45 508.08,-217.02"/>
<polygon fill="black" stroke="black" points="504.72,-218 510.6,-226.81 511.5,-216.26 504.72,-218"/>
</a>
</g>
<g id="a_edge12&#45;label"><a xlink:href="docs/safe.goIndex.html" xlink:title="goIndex, collection (safe)" target="_parent">
<text text-anchor="start" x="515.22" y="-184.6" font-family="Times,serif" font-size="13.00">goIndex, collection (safe)</text>
</a>
</g>
</g>
<!-- Profile&#45;&gt;Profile -->
<g id="edge13" class="edge">
<title>Profile&#45;&gt;Profile</title>
<g id="a_edge13"><a xlink:href="docs/unsafe.doCreate.html" xlink:title="doCreate (unsafe)" target="_parent">
<path fill="none" stroke="black" d="M820.73,-130.15C830.98,-129.56 838.72,-126.34 838.72,-120.5 838.72,-116.85 835.7,-114.22 830.93,-112.62"/>
<polygon fill="black" stroke="black" points="831.18,-109.12 820.73,-110.85 829.98,-116.01 831.18,-109.12"/>
</a>
</g>
<g id="a_edge13&#45;label"><a xlink:href="docs/unsafe.doCreate.html" xlink:title="doCreate (unsafe)" target="_parent">
<text text-anchor="start" x="838.72" y="-117.1" font-family="Times,serif" font-size="13.00">doCreate (unsafe)</text>
</a>
</g>
</g>
</g>
</svg>
