<?xml version="1.0" encoding="UTF-8" standalone="no"?>
<!DOCTYPE svg PUBLIC "-//W3C//DTD SVG 1.1//EN"
 "http://www.w3.org/Graphics/SVG/1.1/DTD/svg11.dtd">
<!-- Generated by graphviz version 2.47.1 (20210417.1919)
 -->
<!-- Title: application_state_diagram Pages: 1 -->
<svg width="881pt" height="469pt"
 viewBox="0.00 0.00 881.00 469.00" xmlns="http://www.w3.org/2000/svg" xmlns:xlink="http://www.w3.org/1999/xlink">
<g id="graph0" class="graph" transform="scale(1 1) rotate(0) translate(4 465)">
<title>application_state_diagram</title>
<g id="a_graph0"><a xlink:href="index.html" xlink:title="MaAlps" target="_parent">
<polygon fill="white" stroke="transparent" points="-4,4 -4,-465 877,-465 877,4 -4,4"/>
<text text-anchor="middle" x="436.5" y="-445.8" font-family="Helvetica,sans-Serif" font-size="14.00">MaAlps</text>
</a>
</g>
<!-- AlpsItem -->
<g id="node1" class="node">
<title>AlpsItem</title>
<g id="a_node1"><a xlink:href="docs/semantic.AlpsItem.html" xlink:title="&lt;TABLE&gt;" target="_parent">
<polygon fill="lightgray" stroke="black" stroke-width="2" points="588.5,-438 505.5,-438 505.5,-306 588.5,-306 588.5,-438"/>
<text text-anchor="start" x="521.5" y="-420.8" font-family="Times,serif" font-size="14.00">AlpsItem</text>
<text text-anchor="start" x="537.5" y="-405.8" font-family="Times,serif" font-size="14.00">(id)</text>
<text text-anchor="start" x="521" y="-390.8" font-family="Times,serif" font-size="14.00">(isPublic)</text>
<text text-anchor="start" x="516" y="-375.8" font-family="Times,serif" font-size="14.00">(profileUrl)</text>
<text text-anchor="start" x="532" y="-360.8" font-family="Times,serif" font-size="14.00">(title)</text>
<text text-anchor="start" x="530" y="-345.8" font-family="Times,serif" font-size="14.00">(User)</text>
<text text-anchor="start" x="512" y="-330.8" font-family="Times,serif" font-size="14.00">(mediaType)</text>
<text text-anchor="start" x="524.5" y="-315.8" font-family="Times,serif" font-size="14.00">(asdUrl)</text>
</a>
</g>
</g>
<!-- Index -->
<g id="node3" class="node">
<title>Index</title>
<g id="a_node3"><a xlink:href="docs/semantic.Index.html" xlink:title="&lt;TABLE&gt;" target="_parent">
<polygon fill="lightgray" stroke="black" stroke-width="2" points="305,-256 223,-256 223,-199 305,-199 305,-256"/>
<text text-anchor="start" x="248.5" y="-238.3" font-family="Times,serif" font-size="14.00">Index</text>
<text text-anchor="start" x="229" y="-223.3" font-family="Times,serif" font-size="14.00">(PublicAlps)</text>
<text text-anchor="start" x="233.5" y="-208.3" font-family="Times,serif" font-size="14.00">(AlpsItem)</text>
</a>
</g>
</g>
<!-- AlpsItem&#45;&gt;Index -->
<g id="edge1" class="edge">
<title>AlpsItem&#45;&gt;Index</title>
<g id="a_edge1"><a xlink:href="docs/safe.goIndex.html" xlink:title="goIndex, collection (safe)" target="_parent">
<path fill="none" stroke="black" d="M505.43,-366.39C427.16,-356.75 262.75,-331.69 229,-288 223.4,-280.76 224.26,-272.54 228.22,-264.57"/>
<polygon fill="black" stroke="black" points="231.2,-266.41 233.58,-256.09 225.28,-262.68 231.2,-266.41"/>
</a>
</g>
<g id="a_edge1&#45;label"><a xlink:href="docs/safe.goIndex.html" xlink:title="goIndex, collection (safe)" target="_parent">
<text text-anchor="middle" x="298" y="-277.6" font-family="Times,serif" font-size="13.00">goIndex, collection (safe)</text>
</a>
</g>
</g>
<!-- MyAlps -->
<g id="node4" class="node">
<title>MyAlps</title>
<g id="a_node4"><a xlink:href="docs/semantic.MyAlps.html" xlink:title="&lt;TABLE&gt;" target="_parent">
<polygon fill="lightgray" stroke="black" stroke-width="2" points="490.5,-149 417.5,-149 417.5,-92 490.5,-92 490.5,-149"/>
<text text-anchor="start" x="431.5" y="-131.3" font-family="Times,serif" font-size="14.00">MyAlps</text>
<text text-anchor="start" x="424" y="-116.3" font-family="Times,serif" font-size="14.00">(AlpsItem)</text>
<text text-anchor="start" x="437" y="-101.3" font-family="Times,serif" font-size="14.00">(User)</text>
</a>
</g>
</g>
<!-- AlpsItem&#45;&gt;MyAlps -->
<g id="edge2" class="edge">
<title>AlpsItem&#45;&gt;MyAlps</title>
<g id="a_edge2"><a xlink:href="docs/safe.goMyAlps.html" xlink:title="goMyAlps (safe)" target="_parent">
<path fill="none" stroke="black" d="M542.91,-305.82C538.73,-255.16 530.84,-189.8 517,-167 512.37,-159.37 505.93,-152.65 498.92,-146.88"/>
<polygon fill="black" stroke="black" points="500.6,-143.76 490.51,-140.53 496.38,-149.35 500.6,-143.76"/>
</a>
</g>
<g id="a_edge2&#45;label"><a xlink:href="docs/safe.goMyAlps.html" xlink:title="goMyAlps (safe)" target="_parent">
<text text-anchor="middle" x="583.5" y="-224.1" font-family="Times,serif" font-size="13.00">goMyAlps (safe)</text>
</a>
</g>
</g>
<!-- User -->
<g id="node5" class="node">
<title>User</title>
<g id="a_node5"><a xlink:href="docs/semantic.User.html" xlink:title="&lt;TABLE&gt;" target="_parent">
<polygon fill="lightgray" stroke="black" stroke-width="2" points="694,-248.5 640,-248.5 640,-206.5 694,-206.5 694,-248.5"/>
<text text-anchor="start" x="654" y="-231.3" font-family="Times,serif" font-size="14.00">User</text>
<text text-anchor="start" x="657" y="-216.3" font-family="Times,serif" font-size="14.00">(id)</text>
</a>
</g>
</g>
<!-- AlpsItem&#45;&gt;User -->
<g id="edge3" class="edge">
<title>AlpsItem&#45;&gt;User</title>
<g id="a_edge3"><a xlink:href="docs/safe.goUser.html" xlink:title="goUser (safe)" target="_parent">
<path fill="none" stroke="black" d="M548.98,-305.89C551.99,-294.19 556.97,-282.9 565,-274 583.93,-253.01 600.41,-268.01 626,-256 627.6,-255.25 629.21,-254.44 630.81,-253.59"/>
<polygon fill="black" stroke="black" points="632.99,-256.37 639.89,-248.33 629.48,-250.32 632.99,-256.37"/>
</a>
</g>
<g id="a_edge3&#45;label"><a xlink:href="docs/safe.goUser.html" xlink:title="goUser (safe)" target="_parent">
<text text-anchor="middle" x="601.5" y="-277.6" font-family="Times,serif" font-size="13.00">goUser (safe)</text>
</a>
</g>
</g>
<!-- AlpsItemEdit -->
<g id="node2" class="node">
<title>AlpsItemEdit</title>
<g id="a_node2"><a xlink:href="docs/semantic.AlpsItemEdit.html" xlink:title="&lt;TABLE&gt;" target="_parent">
<polygon fill="lightgray" stroke="black" stroke-width="2" points="496,-42 410,-42 410,0 496,0 496,-42"/>
<text text-anchor="start" x="416" y="-24.8" font-family="Times,serif" font-size="14.00">AlpsItemEdit</text>
<text text-anchor="start" x="422.5" y="-9.8" font-family="Times,serif" font-size="14.00">(AlpsItem)</text>
</a>
</g>
</g>
<!-- AlpsItemEdit&#45;&gt;MyAlps -->
<g id="edge4" class="edge">
<title>AlpsItemEdit&#45;&gt;MyAlps</title>
<g id="a_edge4"><a xlink:href="docs/idempotent.doEdit.html" xlink:title="doEdit, edit (idempotent)" target="_parent">
<path fill="none" stroke="black" d="M496.11,-33.08C509.64,-38.81 523.09,-47.36 531,-60 542.65,-78.63 522.58,-93.69 500.02,-104"/>
<polygon fill="black" stroke="black" points="498.46,-100.86 490.63,-107.99 501.2,-107.3 498.46,-100.86"/>
</a>
</g>
<g id="a_edge4&#45;label"><a xlink:href="docs/idempotent.doEdit.html" xlink:title="doEdit, edit (idempotent)" target="_parent">
<text text-anchor="middle" x="602.5" y="-63.6" font-family="Times,serif" font-size="13.00">doEdit, edit (idempotent)</text>
</a>
</g>
</g>
<!-- Index&#45;&gt;AlpsItem -->
<g id="edge5" class="edge">
<title>Index&#45;&gt;AlpsItem</title>
<g id="a_edge5"><a xlink:href="docs/safe.goAlpsItem.html" xlink:title="goAlpsItem, item (safe)" target="_parent">
<path fill="none" stroke="black" d="M305.18,-245.23C324.26,-253.35 347.07,-263.59 367,-274 377.61,-279.54 379.59,-282.09 390,-288 424.99,-307.87 465.1,-329.05 496.02,-345.04"/>
<polygon fill="black" stroke="black" points="494.82,-348.36 505.31,-349.83 498.03,-342.14 494.82,-348.36"/>
</a>
</g>
<g id="a_edge5&#45;label"><a xlink:href="docs/safe.goAlpsItem.html" xlink:title="goAlpsItem, item (safe)" target="_parent">
<text text-anchor="middle" x="453.5" y="-277.6" font-family="Times,serif" font-size="13.00">goAlpsItem, item (safe)</text>
</a>
</g>
</g>
<!-- Index&#45;&gt;MyAlps -->
<g id="edge6" class="edge">
<title>Index&#45;&gt;MyAlps</title>
<g id="a_edge6"><a xlink:href="docs/safe.goMyAlps.html" xlink:title="goMyAlps (safe)" target="_parent">
<path fill="none" stroke="black" d="M257.64,-198.87C256.73,-187.88 257.96,-175.79 265,-167 282.58,-145.07 357.26,-132.42 407.32,-126.25"/>
<polygon fill="black" stroke="black" points="407.77,-129.72 417.29,-125.07 406.94,-122.77 407.77,-129.72"/>
</a>
</g>
<g id="a_edge6&#45;label"><a xlink:href="docs/safe.goMyAlps.html" xlink:title="goMyAlps (safe)" target="_parent">
<text text-anchor="middle" x="310.5" y="-170.6" font-family="Times,serif" font-size="13.00">goMyAlps (safe)</text>
</a>
</g>
</g>
<!-- StateDiagram -->
<g id="node6" class="node">
<title>StateDiagram</title>
<g id="a_node6"><a xlink:href="docs/semantic.StateDiagram.html" xlink:title="StateDiagram" target="_parent">
<polygon fill="lightgray" stroke="black" stroke-width="2" points="92,-138.5 0,-138.5 0,-102.5 92,-102.5 92,-138.5"/>
<text text-anchor="middle" x="46" y="-116.8" font-family="Times,serif" font-size="14.00">StateDiagram</text>
</a>
</g>
</g>
<!-- Index&#45;&gt;StateDiagram -->
<g id="edge7" class="edge">
<title>Index&#45;&gt;StateDiagram</title>
<g id="a_edge7"><a xlink:href="docs/idempotent.doCreateStateDiagram.html" xlink:title="doCreateStateDiagram (idempotent)" target="_parent">
<path fill="none" stroke="black" d="M222.89,-222.47C170.12,-216.46 82.65,-203.38 60,-181 51.51,-172.6 47.77,-160.09 46.26,-148.7"/>
<polygon fill="black" stroke="black" points="49.75,-148.38 45.42,-138.71 42.77,-148.97 49.75,-148.38"/>
</a>
</g>
<g id="a_edge7&#45;label"><a xlink:href="docs/idempotent.doCreateStateDiagram.html" xlink:title="doCreateStateDiagram (idempotent)" target="_parent">
<text text-anchor="middle" x="157.5" y="-170.6" font-family="Times,serif" font-size="13.00">doCreateStateDiagram (idempotent)</text>
</a>
</g>
</g>
<!-- MyAlps&#45;&gt;AlpsItem -->
<g id="edge8" class="edge">
<title>MyAlps&#45;&gt;AlpsItem</title>
<path fill="none" stroke="black" d="M490.51,-124.07C564.95,-131.61 731.19,-160.99 778,-274 808.67,-348.03 675.56,-365.75 598.52,-369.86"/>
<polygon fill="black" stroke="black" points="598.32,-366.36 588.5,-370.34 598.66,-373.36 598.32,-366.36"/>
<g id="a_edge8_0"><a xlink:href="docs/unsafe.doCreate.html" xlink:title="&lt;TABLE&gt;">
<text text-anchor="start" x="772.5" y="-234.1" font-family="Times,serif" font-size="13.00">doCreate (unsafe)</text>
</a>
</g>
<g id="a_edge8_1"><a xlink:href="docs/safe.goAlpsItem.html" xlink:title="&lt;TABLE&gt;">
<text text-anchor="start" x="772.5" y="-214.1" font-family="Times,serif" font-size="13.00">goAlpsItem (safe)</text>
</a>
</g>
</g>
<!-- MyAlps&#45;&gt;AlpsItemEdit -->
<g id="edge9" class="edge">
<title>MyAlps&#45;&gt;AlpsItemEdit</title>
<g id="a_edge9"><a xlink:href="docs/safe.goAlpsItemEdit.html" xlink:title="goAlpsItemEdit, edit&#45;form (safe)" target="_parent">
<path fill="none" stroke="black" d="M417.17,-112.97C380.26,-104.71 331.5,-88.07 351,-60 362.24,-43.82 381.24,-34.51 399.82,-29.17"/>
<polygon fill="black" stroke="black" points="400.92,-32.5 409.75,-26.65 399.2,-25.72 400.92,-32.5"/>
</a>
</g>
<g id="a_edge9&#45;label"><a xlink:href="docs/safe.goAlpsItemEdit.html" xlink:title="goAlpsItemEdit, edit&#45;form (safe)" target="_parent">
<text text-anchor="middle" x="439" y="-63.6" font-family="Times,serif" font-size="13.00">goAlpsItemEdit, edit&#45;form (safe)</text>
</a>
</g>
</g>
<!-- MyAlps&#45;&gt;Index -->
<g id="edge10" class="edge">
<title>MyAlps&#45;&gt;Index</title>
<g id="a_edge10"><a xlink:href="docs/safe.goIndex.html" xlink:title="goIndex, collection (safe)" target="_parent">
<path fill="none" stroke="black" d="M417.37,-143.71C405.16,-151.11 391.49,-159.41 379,-167 368.77,-173.21 366.48,-175.23 356,-181 342.68,-188.33 328.02,-195.83 314.4,-202.57"/>
<polygon fill="black" stroke="black" points="312.59,-199.55 305.16,-207.1 315.68,-205.84 312.59,-199.55"/>
</a>
</g>
<g id="a_edge10&#45;label"><a xlink:href="docs/safe.goIndex.html" xlink:title="goIndex, collection (safe)" target="_parent">
<text text-anchor="middle" x="448" y="-170.6" font-family="Times,serif" font-size="13.00">goIndex, collection (safe)</text>
</a>
</g>
</g>
<!-- User&#45;&gt;AlpsItem -->
<g id="edge11" class="edge">
<title>User&#45;&gt;AlpsItem</title>
<g id="a_edge11"><a xlink:href="docs/safe.goAlpsItem.html" xlink:title="goAlpsItem, item (safe)" target="_parent">
<path fill="none" stroke="black" d="M659.46,-248.58C654.4,-260.65 647.02,-275.95 638,-288 626.11,-303.89 610.88,-319.17 596.29,-332.19"/>
<polygon fill="black" stroke="black" points="593.97,-329.57 588.74,-338.79 598.58,-334.84 593.97,-329.57"/>
</a>
</g>
<g id="a_edge11&#45;label"><a xlink:href="docs/safe.goAlpsItem.html" xlink:title="goAlpsItem, item (safe)" target="_parent">
<text text-anchor="middle" x="710.5" y="-277.6" font-family="Times,serif" font-size="13.00">goAlpsItem, item (safe)</text>
</a>
</g>
</g>
</g>
</svg>
