<?xml version="1.0" encoding="UTF-8" standalone="no"?>
<!DOCTYPE svg PUBLIC "-//W3C//DTD SVG 1.1//EN"
 "http://www.w3.org/Graphics/SVG/1.1/DTD/svg11.dtd">
<!-- Generated by graphviz version 2.47.3 (20210619.1520)
 -->
<!-- Title: application_state_diagram Pages: 1 -->
<svg width="1223pt" height="454pt"
 viewBox="0.00 0.00 1223.35 454.00" xmlns="http://www.w3.org/2000/svg" xmlns:xlink="http://www.w3.org/1999/xlink">
<g id="graph0" class="graph" transform="scale(1 1) rotate(0) translate(4 450)">
<title>application_state_diagram</title>
<g id="a_graph0"><a xlink:href="index.html" xlink:title="MaAlps" target="_parent">
<polygon fill="white" stroke="transparent" points="-4,4 -4,-450 1219.35,-450 1219.35,4 -4,4"/>
<text text-anchor="middle" x="607.67" y="-430.8" font-family="Helvetica,sans-Serif" font-size="14.00">MaAlps</text>
</a>
</g>
<!-- AlpsItem -->
<g id="node1" class="node">
<title>AlpsItem</title>
<g id="a_node1"><a xlink:href="docs/semantic.AlpsItem.html" xlink:title="&lt;TABLE&gt;" target="_parent">
<polygon fill="lightgray" stroke="black" stroke-width="2" points="746.35,-423 662.35,-423 662.35,-291 746.35,-291 746.35,-423"/>
<text text-anchor="start" x="677.85" y="-405.8" font-family="Times,serif" font-size="14.00">AlpsItem</text>
<text text-anchor="start" x="693.85" y="-390.8" font-family="Times,serif" font-size="14.00">(id)</text>
<text text-anchor="start" x="676.85" y="-375.8" font-family="Times,serif" font-size="14.00">(isPublic)</text>
<text text-anchor="start" x="688.35" y="-360.8" font-family="Times,serif" font-size="14.00">(title)</text>
<text text-anchor="start" x="687.85" y="-345.8" font-family="Times,serif" font-size="14.00">(user)</text>
<text text-anchor="start" x="680.85" y="-330.8" font-family="Times,serif" font-size="14.00">(asdUrl)</text>
<text text-anchor="start" x="671.85" y="-315.8" font-family="Times,serif" font-size="14.00">(profileUrl)</text>
<text text-anchor="start" x="668.35" y="-300.8" font-family="Times,serif" font-size="14.00">(mediaType)</text>
</a>
</g>
</g>
<!-- AlpsItemEdit -->
<g id="node2" class="node">
<title>AlpsItemEdit</title>
<g id="a_node2"><a xlink:href="docs/semantic.AlpsItemEdit.html" xlink:title="&lt;TABLE&gt;" target="_parent">
<polygon fill="lightgray" stroke="black" stroke-width="2" points="641.35,-42 553.35,-42 553.35,0 641.35,0 641.35,-42"/>
<text text-anchor="start" x="559.35" y="-24.8" font-family="Times,serif" font-size="14.00">AlpsItemEdit</text>
<text text-anchor="start" x="566.35" y="-9.8" font-family="Times,serif" font-size="14.00">(AlpsItem)</text>
</a>
</g>
</g>
<!-- AlpsItem&#45;&gt;AlpsItemEdit -->
<g id="edge1" class="edge">
<title>AlpsItem&#45;&gt;AlpsItemEdit</title>
<g id="a_edge1"><a xlink:href="docs/safe.goAlpsItemEdit.html" xlink:title="goAlpsItemEdit, edit&#45;form (safe)" target="_parent">
<path fill="none" stroke="black" d="M662.22,-352.13C524.01,-338.47 88.61,-287.5 7.35,-181 -60.62,-91.92 385.29,-41.59 543.3,-26.71"/>
<polygon fill="black" stroke="black" points="543.65,-30.2 553.29,-25.78 543.01,-23.23 543.65,-30.2"/>
</a>
</g>
<g id="a_edge1&#45;label"><a xlink:href="docs/safe.goAlpsItemEdit.html" xlink:title="goAlpsItemEdit, edit&#45;form (safe)" target="_parent">
<text text-anchor="start" x="7.35" y="-170.6" font-family="Times,serif" font-size="13.00">goAlpsItemEdit, edit&#45;form (safe)</text>
</a>
</g>
</g>
<!-- Index -->
<g id="node3" class="node">
<title>Index</title>
<g id="a_node3"><a xlink:href="docs/semantic.Index.html" xlink:title="&lt;TABLE&gt;" target="_parent">
<polygon fill="lightgray" stroke="black" stroke-width="2" points="425.35,-241 359.35,-241 359.35,-199 425.35,-199 425.35,-241"/>
<text text-anchor="start" x="376.35" y="-223.8" font-family="Times,serif" font-size="14.00">Index</text>
<text text-anchor="start" x="365.35" y="-208.8" font-family="Times,serif" font-size="14.00">(alpsList)</text>
</a>
</g>
</g>
<!-- AlpsItem&#45;&gt;Index -->
<g id="edge4" class="edge">
<title>AlpsItem&#45;&gt;Index</title>
<g id="a_edge4"><a xlink:href="docs/safe.goIndex.html" xlink:title="goIndex, collection (safe)" target="_parent">
<path fill="none" stroke="black" d="M662.11,-352.51C576.82,-344.49 388.87,-321.6 350.35,-273 344.07,-265.09 346.92,-256.55 353.4,-248.72"/>
<polygon fill="black" stroke="black" points="356.33,-250.74 360.9,-241.18 351.37,-245.8 356.33,-250.74"/>
</a>
</g>
<g id="a_edge4&#45;label"><a xlink:href="docs/safe.goIndex.html" xlink:title="goIndex, collection (safe)" target="_parent">
<text text-anchor="start" x="350.35" y="-262.6" font-family="Times,serif" font-size="13.00">goIndex, collection (safe)</text>
</a>
</g>
</g>
<!-- Profile -->
<g id="node4" class="node">
<title>Profile</title>
<g id="a_node4"><a xlink:href="docs/semantic.Profile.html" xlink:title="&lt;TABLE&gt;" target="_parent">
<polygon fill="lightgray" stroke="black" stroke-width="2" points="630.35,-149 564.35,-149 564.35,-92 630.35,-92 630.35,-149"/>
<text text-anchor="start" x="578.35" y="-131.3" font-family="Times,serif" font-size="14.00">Profile</text>
<text text-anchor="start" x="570.35" y="-116.3" font-family="Times,serif" font-size="14.00">(alpsList)</text>
<text text-anchor="start" x="580.85" y="-101.3" font-family="Times,serif" font-size="14.00">(user)</text>
</a>
</g>
</g>
<!-- AlpsItem&#45;&gt;Profile -->
<g id="edge5" class="edge">
<title>AlpsItem&#45;&gt;Profile</title>
<path fill="none" stroke="black" d="M746.4,-356.1C804.65,-353.69 908.15,-339.61 956.35,-273 967.89,-257.04 986.79,-240.84 948.35,-199 907.16,-154.17 724.86,-132.65 640.48,-124.96"/>
<polygon fill="black" stroke="black" points="640.72,-121.47 630.45,-124.07 640.1,-128.44 640.72,-121.47"/>
<g id="a_edge5_0"><a xlink:href="docs/idempotent.doDelete.html" xlink:title="&lt;TABLE&gt;">
<text text-anchor="start" x="974.35" y="-226.6" font-family="Times,serif" font-size="13.00">doDelete (idempotent)</text>
</a>
</g>
<g id="a_edge5_1"><a xlink:href="docs/safe.goProfile.html" xlink:title="&lt;TABLE&gt;">
<text text-anchor="start" x="974.35" y="-206.6" font-family="Times,serif" font-size="13.00">goProfile (safe)</text>
</a>
</g>
</g>
<!-- AlpsProfile -->
<g id="node5" class="node">
<title>AlpsProfile</title>
<g id="a_node5"><a xlink:href="docs/semantic.AlpsProfile.html" xlink:title="AlpsProfile" target="_parent">
<polygon fill="lightgray" stroke="black" stroke-width="2" points="867.35,-238 787.35,-238 787.35,-202 867.35,-202 867.35,-238"/>
<text text-anchor="middle" x="827.35" y="-216.3" font-family="Times,serif" font-size="14.00">AlpsProfile</text>
</a>
</g>
</g>
<!-- AlpsItem&#45;&gt;AlpsProfile -->
<g id="edge2" class="edge">
<title>AlpsItem&#45;&gt;AlpsProfile</title>
<g id="a_edge2"><a xlink:href="docs/safe.goAlpsProfile.html" xlink:title="goAlpsProfile (safe)" target="_parent">
<path fill="none" stroke="black" d="M739.5,-290.78C747.17,-279.48 755.87,-268.37 765.35,-259 771.03,-253.38 777.69,-248.22 784.5,-243.63"/>
<polygon fill="black" stroke="black" points="786.58,-246.46 793.14,-238.14 782.82,-240.55 786.58,-246.46"/>
</a>
</g>
<g id="a_edge2&#45;label"><a xlink:href="docs/safe.goAlpsProfile.html" xlink:title="goAlpsProfile (safe)" target="_parent">
<text text-anchor="start" x="765.35" y="-262.6" font-family="Times,serif" font-size="13.00">goAlpsProfile (safe)</text>
</a>
</g>
</g>
<!-- Asd -->
<g id="node6" class="node">
<title>Asd</title>
<g id="a_node6"><a xlink:href="docs/semantic.Asd.html" xlink:title="Asd" target="_parent">
<polygon fill="lightgray" stroke="black" stroke-width="2" points="939.35,-238 885.35,-238 885.35,-202 939.35,-202 939.35,-238"/>
<text text-anchor="middle" x="912.35" y="-216.3" font-family="Times,serif" font-size="14.00">Asd</text>
</a>
</g>
</g>
<!-- AlpsItem&#45;&gt;Asd -->
<g id="edge3" class="edge">
<title>AlpsItem&#45;&gt;Asd</title>
<g id="a_edge3"><a xlink:href="docs/safe.goAsd.html" xlink:title="goAsd (safe)" target="_parent">
<path fill="none" stroke="black" d="M746.43,-341.12C782.12,-327.16 833.4,-303.82 871.35,-273 880.54,-265.53 888.98,-255.65 895.78,-246.5"/>
<polygon fill="black" stroke="black" points="898.83,-248.25 901.77,-238.07 893.12,-244.2 898.83,-248.25"/>
</a>
</g>
<g id="a_edge3&#45;label"><a xlink:href="docs/safe.goAsd.html" xlink:title="goAsd (safe)" target="_parent">
<text text-anchor="start" x="885.35" y="-262.6" font-family="Times,serif" font-size="13.00">goAsd (safe)</text>
</a>
</g>
</g>
<!-- AlpsItemEdit&#45;&gt;AlpsItem -->
<g id="edge6" class="edge">
<title>AlpsItemEdit&#45;&gt;AlpsItem</title>
<g id="a_edge6"><a xlink:href="docs/idempotent.doEdit.html" xlink:title="doEdit, edit (idempotent)" target="_parent">
<path fill="none" stroke="black" d="M641.66,-21.49C744.27,-23.05 997.3,-43.23 1100.35,-199 1183.69,-324.99 881.94,-349.88 756.55,-354.79"/>
<polygon fill="black" stroke="black" points="756.28,-351.3 746.41,-355.16 756.53,-358.3 756.28,-351.3"/>
</a>
</g>
<g id="a_edge6&#45;label"><a xlink:href="docs/idempotent.doEdit.html" xlink:title="doEdit, edit (idempotent)" target="_parent">
<text text-anchor="start" x="1083.35" y="-170.6" font-family="Times,serif" font-size="13.00">doEdit, edit (idempotent)</text>
</a>
</g>
</g>
<!-- Index&#45;&gt;AlpsItem -->
<g id="edge7" class="edge">
<title>Index&#45;&gt;AlpsItem</title>
<g id="a_edge7"><a xlink:href="docs/safe.goAlpsItem.html" xlink:title="goAlpsItem, item (safe)" target="_parent">
<path fill="none" stroke="black" d="M425.69,-233.33C443.41,-240.24 465.39,-249.39 484.35,-259 495.02,-264.41 496.69,-267.55 507.35,-273 555.37,-297.56 612.37,-320.99 652.67,-336.65"/>
<polygon fill="black" stroke="black" points="651.43,-339.93 662.02,-340.27 653.96,-333.4 651.43,-339.93"/>
</a>
</g>
<g id="a_edge7&#45;label"><a xlink:href="docs/safe.goAlpsItem.html" xlink:title="goAlpsItem, item (safe)" target="_parent">
<text text-anchor="start" x="507.35" y="-262.6" font-family="Times,serif" font-size="13.00">goAlpsItem, item (safe)</text>
</a>
</g>
</g>
<!-- Index&#45;&gt;Profile -->
<g id="edge8" class="edge">
<title>Index&#45;&gt;Profile</title>
<g id="a_edge8"><a xlink:href="docs/safe.goProfile.html" xlink:title="goProfile (safe)" target="_parent">
<path fill="none" stroke="black" d="M425.47,-213.79C453.76,-208.4 494.9,-198.28 527.35,-181 539.92,-174.3 552.24,-165.04 562.96,-155.81"/>
<polygon fill="black" stroke="black" points="565.31,-158.39 570.45,-149.13 560.66,-153.17 565.31,-158.39"/>
</a>
</g>
<g id="a_edge8&#45;label"><a xlink:href="docs/safe.goProfile.html" xlink:title="goProfile (safe)" target="_parent">
<text text-anchor="start" x="549.35" y="-170.6" font-family="Times,serif" font-size="13.00">goProfile (safe)</text>
</a>
</g>
</g>
<!-- StateDiagram -->
<g id="node7" class="node">
<title>StateDiagram</title>
<g id="a_node7"><a xlink:href="docs/semantic.StateDiagram.html" xlink:title="StateDiagram" target="_parent">
<polygon fill="lightgray" stroke="black" stroke-width="2" points="226.85,-138.5 133.85,-138.5 133.85,-102.5 226.85,-102.5 226.85,-138.5"/>
<text text-anchor="middle" x="180.35" y="-116.8" font-family="Times,serif" font-size="14.00">StateDiagram</text>
</a>
</g>
</g>
<!-- Index&#45;&gt;StateDiagram -->
<g id="edge9" class="edge">
<title>Index&#45;&gt;StateDiagram</title>
<g id="a_edge9"><a xlink:href="docs/idempotent.doCreateStateDiagram.html" xlink:title="doCreateStateDiagram (idempotent)" target="_parent">
<path fill="none" stroke="black" d="M359.06,-217.17C308.15,-213.65 214.4,-204.15 191.35,-181 183.09,-172.71 179.93,-160.37 179.01,-149.07"/>
<polygon fill="black" stroke="black" points="182.49,-148.62 178.7,-138.72 175.5,-148.82 182.49,-148.62"/>
</a>
</g>
<g id="a_edge9&#45;label"><a xlink:href="docs/idempotent.doCreateStateDiagram.html" xlink:title="doCreateStateDiagram (idempotent)" target="_parent">
<text text-anchor="start" x="191.35" y="-170.6" font-family="Times,serif" font-size="13.00">doCreateStateDiagram (idempotent)</text>
</a>
</g>
</g>
<!-- Profile&#45;&gt;AlpsItem -->
<g id="edge10" class="edge">
<title>Profile&#45;&gt;AlpsItem</title>
<g id="a_edge10"><a xlink:href="docs/safe.goAlpsItem.html" xlink:title="goAlpsItem, item (safe)" target="_parent">
<path fill="none" stroke="black" d="M620.5,-149.41C624.47,-155.02 628.3,-161.03 631.35,-167 646.99,-197.68 642.35,-208.72 654.35,-241 659.23,-254.14 664.82,-267.94 670.45,-281.24"/>
<polygon fill="black" stroke="black" points="667.39,-283 674.54,-290.82 673.83,-280.25 667.39,-283"/>
</a>
</g>
<g id="a_edge10&#45;label"><a xlink:href="docs/safe.goAlpsItem.html" xlink:title="goAlpsItem, item (safe)" target="_parent">
<text text-anchor="start" x="654.35" y="-216.6" font-family="Times,serif" font-size="13.00">goAlpsItem, item (safe)</text>
</a>
</g>
</g>
<!-- Profile&#45;&gt;AlpsItemEdit -->
<g id="edge11" class="edge">
<title>Profile&#45;&gt;AlpsItemEdit</title>
<g id="a_edge11"><a xlink:href="docs/safe.goAlpsItemEdit.html" xlink:title="goAlpsItemEdit, edit&#45;form (safe)" target="_parent">
<path fill="none" stroke="black" d="M597.35,-91.82C597.35,-79.51 597.35,-64.97 597.35,-52.36"/>
<polygon fill="black" stroke="black" points="600.85,-52.31 597.35,-42.31 593.85,-52.31 600.85,-52.31"/>
</a>
</g>
<g id="a_edge11&#45;label"><a xlink:href="docs/safe.goAlpsItemEdit.html" xlink:title="goAlpsItemEdit, edit&#45;form (safe)" target="_parent">
<text text-anchor="start" x="597.35" y="-63.6" font-family="Times,serif" font-size="13.00">goAlpsItemEdit, edit&#45;form (safe)</text>
</a>
</g>
</g>
<!-- Profile&#45;&gt;Index -->
<g id="edge12" class="edge">
<title>Profile&#45;&gt;Index</title>
<g id="a_edge12"><a xlink:href="docs/safe.goIndex.html" xlink:title="goIndex, collection (safe)" target="_parent">
<path fill="none" stroke="black" d="M564.03,-123.84C510.94,-128.34 410.9,-140.22 389.35,-167 384.46,-173.07 383.2,-180.95 383.69,-188.74"/>
<polygon fill="black" stroke="black" points="380.24,-189.37 385.17,-198.75 387.17,-188.34 380.24,-189.37"/>
</a>
</g>
<g id="a_edge12&#45;label"><a xlink:href="docs/safe.goIndex.html" xlink:title="goIndex, collection (safe)" target="_parent">
<text text-anchor="start" x="389.35" y="-170.6" font-family="Times,serif" font-size="13.00">goIndex, collection (safe)</text>
</a>
</g>
</g>
<!-- Profile&#45;&gt;Profile -->
<g id="edge13" class="edge">
<title>Profile&#45;&gt;Profile</title>
<g id="a_edge13"><a xlink:href="docs/unsafe.doCreate.html" xlink:title="doCreate (unsafe)" target="_parent">
<path fill="none" stroke="black" d="M630.7,-130.23C640.62,-129.94 648.35,-126.7 648.35,-120.5 648.35,-116.63 645.33,-113.91 640.65,-112.34"/>
<polygon fill="black" stroke="black" points="641.12,-108.88 630.7,-110.77 640.03,-115.79 641.12,-108.88"/>
</a>
</g>
<g id="a_edge13&#45;label"><a xlink:href="docs/unsafe.doCreate.html" xlink:title="doCreate (unsafe)" target="_parent">
<text text-anchor="start" x="648.35" y="-117.1" font-family="Times,serif" font-size="13.00">doCreate (unsafe)</text>
</a>
</g>
</g>
</g>
</svg>
