<?xml version="1.0" encoding="UTF-8" standalone="no"?>
<!DOCTYPE svg PUBLIC "-//W3C//DTD SVG 1.1//EN"
 "http://www.w3.org/Graphics/SVG/1.1/DTD/svg11.dtd">
<!-- Generated by graphviz version 2.48.0 (20210717.1556)
 -->
<!-- Title: application_state_diagram Pages: 1 -->
<svg width="1277pt" height="482pt"
 viewBox="0.00 0.00 1276.97 482.00" xmlns="http://www.w3.org/2000/svg" xmlns:xlink="http://www.w3.org/1999/xlink">
<g id="graph0" class="graph" transform="scale(1 1) rotate(0) translate(4 478)">
<title>application_state_diagram</title>
<g id="a_graph0"><a xlink:href="index.html" xlink:title="MaAlps" target="_parent">
<polygon fill="white" stroke="transparent" points="-4,4 -4,-478 1272.97,-478 1272.97,4 -4,4"/>
<text text-anchor="middle" x="634.48" y="-458.8" font-family="Helvetica,sans-Serif" font-size="14.00">MaAlps</text>
</a>
</g>
<!-- AlpsItem -->
<g id="node1" class="node">
<title>AlpsItem</title>
<g id="a_node1"><a xlink:href="docs/semantic.AlpsItem.html" xlink:title="&lt;TABLE&gt;" target="_parent">
<polygon fill="lightgray" stroke="black" stroke-width="2" points="795.97,-451 711.97,-451 711.97,-319 795.97,-319 795.97,-451"/>
<text text-anchor="start" x="727.47" y="-433.8" font-family="Times,serif" font-size="14.00">AlpsItem</text>
<text text-anchor="start" x="743.47" y="-418.8" font-family="Times,serif" font-size="14.00">(id)</text>
<text text-anchor="start" x="726.47" y="-403.8" font-family="Times,serif" font-size="14.00">(isPublic)</text>
<text text-anchor="start" x="737.97" y="-388.8" font-family="Times,serif" font-size="14.00">(title)</text>
<text text-anchor="start" x="737.47" y="-373.8" font-family="Times,serif" font-size="14.00">(user)</text>
<text text-anchor="start" x="730.47" y="-358.8" font-family="Times,serif" font-size="14.00">(asdUrl)</text>
<text text-anchor="start" x="721.47" y="-343.8" font-family="Times,serif" font-size="14.00">(profileUrl)</text>
<text text-anchor="start" x="717.97" y="-328.8" font-family="Times,serif" font-size="14.00">(mediaType)</text>
</a>
</g>
</g>
<!-- AlpsItemEdit -->
<g id="node2" class="node">
<title>AlpsItemEdit</title>
<g id="a_node2"><a xlink:href="docs/semantic.AlpsItemEdit.html" xlink:title="&lt;TABLE&gt;" target="_parent">
<polygon fill="lightgray" stroke="black" stroke-width="2" points="677.97,-42 589.97,-42 589.97,0 677.97,0 677.97,-42"/>
<text text-anchor="start" x="595.97" y="-24.8" font-family="Times,serif" font-size="14.00">AlpsItemEdit</text>
<text text-anchor="start" x="602.97" y="-9.8" font-family="Times,serif" font-size="14.00">(AlpsItem)</text>
</a>
</g>
</g>
<!-- AlpsItem&#45;&gt;AlpsItemEdit -->
<g id="edge1" class="edge">
<title>AlpsItem&#45;&gt;AlpsItemEdit</title>
<g id="a_edge1"><a xlink:href="docs/safe.goAlpsItemEdit.html" xlink:title="goAlpsItemEdit, edit&#45;form (safe)" target="_parent">
<path fill="none" stroke="black" d="M711.59,-380.65C568.21,-368.36 105.37,-320.51 17.97,-209 -50.14,-122.11 94.09,-110.64 147.97,-92 298.45,-39.92 488.09,-26.57 579.62,-23.16"/>
<polygon fill="black" stroke="black" points="579.88,-26.66 589.75,-22.81 579.64,-19.66 579.88,-26.66"/>
</a>
</g>
<g id="a_edge1&#45;label"><a xlink:href="docs/safe.goAlpsItemEdit.html" xlink:title="goAlpsItemEdit, edit&#45;form (safe)" target="_parent">
<text text-anchor="start" x="17.97" y="-184.6" font-family="Times,serif" font-size="13.00">goAlpsItemEdit, edit&#45;form (safe)</text>
</a>
</g>
</g>
<!-- Index -->
<g id="node3" class="node">
<title>Index</title>
<g id="a_node3"><a xlink:href="docs/semantic.Index.html" xlink:title="&lt;TABLE&gt;" target="_parent">
<polygon fill="lightgray" stroke="black" stroke-width="2" points="448.97,-269 382.97,-269 382.97,-227 448.97,-227 448.97,-269"/>
<text text-anchor="start" x="399.97" y="-251.8" font-family="Times,serif" font-size="14.00">Index</text>
<text text-anchor="start" x="388.97" y="-236.8" font-family="Times,serif" font-size="14.00">(alpsList)</text>
</a>
</g>
</g>
<!-- AlpsItem&#45;&gt;Index -->
<g id="edge4" class="edge">
<title>AlpsItem&#45;&gt;Index</title>
<g id="a_edge4"><a xlink:href="docs/safe.goIndex.html" xlink:title="goIndex, collection (safe)" target="_parent">
<path fill="none" stroke="black" d="M711.73,-380.51C626.44,-372.49 438.49,-349.6 399.97,-301 394.83,-294.53 395.08,-286.41 397.62,-278.52"/>
<polygon fill="black" stroke="black" points="400.91,-279.72 401.65,-269.15 394.48,-276.95 400.91,-279.72"/>
</a>
</g>
<g id="a_edge4&#45;label"><a xlink:href="docs/safe.goIndex.html" xlink:title="goIndex, collection (safe)" target="_parent">
<text text-anchor="start" x="399.97" y="-290.6" font-family="Times,serif" font-size="13.00">goIndex, collection (safe)</text>
</a>
</g>
</g>
<!-- Profile -->
<g id="node4" class="node">
<title>Profile</title>
<g id="a_node4"><a xlink:href="docs/semantic.Profile.html" xlink:title="&lt;TABLE&gt;" target="_parent">
<polygon fill="lightgray" stroke="black" stroke-width="2" points="666.97,-149 600.97,-149 600.97,-92 666.97,-92 666.97,-149"/>
<text text-anchor="start" x="614.97" y="-131.3" font-family="Times,serif" font-size="14.00">Profile</text>
<text text-anchor="start" x="606.97" y="-116.3" font-family="Times,serif" font-size="14.00">(alpsList)</text>
<text text-anchor="start" x="617.47" y="-101.3" font-family="Times,serif" font-size="14.00">(user)</text>
</a>
</g>
</g>
<!-- AlpsItem&#45;&gt;Profile -->
<g id="edge5" class="edge">
<title>AlpsItem&#45;&gt;Profile</title>
<path fill="none" stroke="black" d="M796.02,-384.1C854.27,-381.69 957.77,-367.61 1005.97,-301 1017.26,-285.39 1035.3,-270.38 997.97,-227 955.85,-178.06 764.35,-142.15 677.28,-128.06"/>
<polygon fill="black" stroke="black" points="677.63,-124.57 667.2,-126.45 676.52,-131.48 677.63,-124.57"/>
<g id="a_edge5_0"><a xlink:href="docs/idempotent.doDelete.html" xlink:title="&lt;TABLE&gt;">
<text text-anchor="start" x="1023.97" y="-254.6" font-family="Times,serif" font-size="13.00">doDelete (idempotent)</text>
</a>
</g>
<g id="a_edge5_1"><a xlink:href="docs/safe.goProfile.html" xlink:title="&lt;TABLE&gt;">
<text text-anchor="start" x="1023.97" y="-234.6" font-family="Times,serif" font-size="13.00">goProfile (safe)</text>
</a>
</g>
</g>
<!-- AlpsProfile -->
<g id="node5" class="node">
<title>AlpsProfile</title>
<g id="a_node5"><a xlink:href="docs/semantic.AlpsProfile.html" xlink:title="AlpsProfile" target="_parent">
<polygon fill="lightgray" stroke="black" stroke-width="2" points="916.97,-266 836.97,-266 836.97,-230 916.97,-230 916.97,-266"/>
<text text-anchor="middle" x="876.97" y="-244.3" font-family="Times,serif" font-size="14.00">AlpsProfile</text>
</a>
</g>
</g>
<!-- AlpsItem&#45;&gt;AlpsProfile -->
<g id="edge2" class="edge">
<title>AlpsItem&#45;&gt;AlpsProfile</title>
<g id="a_edge2"><a xlink:href="docs/safe.goAlpsProfile.html" xlink:title="goAlpsProfile (safe)" target="_parent">
<path fill="none" stroke="black" d="M789.12,-318.78C796.79,-307.48 805.49,-296.37 814.97,-287 820.65,-281.38 827.31,-276.22 834.12,-271.63"/>
<polygon fill="black" stroke="black" points="836.2,-274.46 842.76,-266.14 832.44,-268.55 836.2,-274.46"/>
</a>
</g>
<g id="a_edge2&#45;label"><a xlink:href="docs/safe.goAlpsProfile.html" xlink:title="goAlpsProfile (safe)" target="_parent">
<text text-anchor="start" x="814.97" y="-290.6" font-family="Times,serif" font-size="13.00">goAlpsProfile (safe)</text>
</a>
</g>
</g>
<!-- Asd -->
<g id="node6" class="node">
<title>Asd</title>
<g id="a_node6"><a xlink:href="docs/semantic.Asd.html" xlink:title="Asd" target="_parent">
<polygon fill="lightgray" stroke="black" stroke-width="2" points="988.97,-266 934.97,-266 934.97,-230 988.97,-230 988.97,-266"/>
<text text-anchor="middle" x="961.97" y="-244.3" font-family="Times,serif" font-size="14.00">Asd</text>
</a>
</g>
</g>
<!-- AlpsItem&#45;&gt;Asd -->
<g id="edge3" class="edge">
<title>AlpsItem&#45;&gt;Asd</title>
<g id="a_edge3"><a xlink:href="docs/safe.goAsd.html" xlink:title="goAsd (safe)" target="_parent">
<path fill="none" stroke="black" d="M796.05,-369.12C831.74,-355.16 883.02,-331.82 920.97,-301 930.16,-293.53 938.6,-283.65 945.4,-274.5"/>
<polygon fill="black" stroke="black" points="948.45,-276.25 951.38,-266.07 942.74,-272.2 948.45,-276.25"/>
</a>
</g>
<g id="a_edge3&#45;label"><a xlink:href="docs/safe.goAsd.html" xlink:title="goAsd (safe)" target="_parent">
<text text-anchor="start" x="934.97" y="-290.6" font-family="Times,serif" font-size="13.00">goAsd (safe)</text>
</a>
</g>
</g>
<!-- AlpsItemEdit&#45;&gt;AlpsItem -->
<g id="edge6" class="edge">
<title>AlpsItemEdit&#45;&gt;AlpsItem</title>
<g id="a_edge6"><a xlink:href="docs/idempotent.doEdit.html" xlink:title="doEdit, edit (idempotent)" target="_parent">
<path fill="none" stroke="black" d="M678.24,-23.39C783.31,-29.4 1046.63,-61.11 1149.97,-227 1229.74,-355.07 930.87,-378.72 806.19,-383.05"/>
<polygon fill="black" stroke="black" points="805.99,-379.55 796.1,-383.37 806.21,-386.55 805.99,-379.55"/>
</a>
</g>
<g id="a_edge6&#45;label"><a xlink:href="docs/idempotent.doEdit.html" xlink:title="doEdit, edit (idempotent)" target="_parent">
<text text-anchor="start" x="1136.97" y="-184.6" font-family="Times,serif" font-size="13.00">doEdit, edit (idempotent)</text>
</a>
</g>
</g>
<!-- Index&#45;&gt;AlpsItem -->
<g id="edge7" class="edge">
<title>Index&#45;&gt;AlpsItem</title>
<g id="a_edge7"><a xlink:href="docs/safe.goAlpsItem.html" xlink:title="goAlpsItem, item (safe)" target="_parent">
<path fill="none" stroke="black" d="M449.05,-257.4C473.14,-264.05 506.27,-274.33 533.97,-287 544.85,-291.98 546.31,-295.55 556.97,-301 604.99,-325.56 661.99,-348.99 702.28,-364.65"/>
<polygon fill="black" stroke="black" points="701.05,-367.93 711.64,-368.27 703.57,-361.4 701.05,-367.93"/>
</a>
</g>
<g id="a_edge7&#45;label"><a xlink:href="docs/safe.goAlpsItem.html" xlink:title="goAlpsItem, item (safe)" target="_parent">
<text text-anchor="start" x="556.97" y="-290.6" font-family="Times,serif" font-size="13.00">goAlpsItem, item (safe)</text>
</a>
</g>
</g>
<!-- Index&#45;&gt;Profile -->
<g id="edge8" class="edge">
<title>Index&#45;&gt;Profile</title>
<path fill="none" stroke="black" d="M449.21,-244.83C478.73,-241.36 521.62,-232.35 550.97,-209 567.62,-195.75 560.07,-183.12 573.97,-167 579.49,-160.6 586.05,-154.52 592.77,-149.02"/>
<polygon fill="black" stroke="black" points="594.96,-151.75 600.69,-142.84 590.65,-146.24 594.96,-151.75"/>
<g id="a_edge8_2"><a xlink:href="docs/safe.goMyProfile.html" xlink:title="&lt;TABLE&gt;">
<text text-anchor="start" x="578.47" y="-194.6" font-family="Times,serif" font-size="13.00">goMyProfile (safe)</text>
</a>
</g>
<g id="a_edge8_3"><a xlink:href="docs/safe.goProfile.html" xlink:title="&lt;TABLE&gt;">
<text text-anchor="start" x="578.47" y="-174.6" font-family="Times,serif" font-size="13.00">goProfile (safe)</text>
</a>
</g>
</g>
<!-- StateDiagram -->
<g id="node7" class="node">
<title>StateDiagram</title>
<g id="a_node7"><a xlink:href="docs/semantic.StateDiagram.html" xlink:title="StateDiagram" target="_parent">
<polygon fill="lightgray" stroke="black" stroke-width="2" points="250.47,-138.5 157.47,-138.5 157.47,-102.5 250.47,-102.5 250.47,-138.5"/>
<text text-anchor="middle" x="203.97" y="-116.8" font-family="Times,serif" font-size="14.00">StateDiagram</text>
</a>
</g>
</g>
<!-- Index&#45;&gt;StateDiagram -->
<g id="edge9" class="edge">
<title>Index&#45;&gt;StateDiagram</title>
<g id="a_edge9"><a xlink:href="docs/idempotent.doCreateStateDiagram.html" xlink:title="doCreateStateDiagram (idempotent)" target="_parent">
<path fill="none" stroke="black" d="M382.71,-245.98C329.12,-243.56 227.38,-235.5 204.97,-209 191.06,-192.56 192.25,-167.5 196.08,-148.4"/>
<polygon fill="black" stroke="black" points="199.52,-149.04 198.4,-138.5 192.71,-147.44 199.52,-149.04"/>
</a>
</g>
<g id="a_edge9&#45;label"><a xlink:href="docs/idempotent.doCreateStateDiagram.html" xlink:title="doCreateStateDiagram (idempotent)" target="_parent">
<text text-anchor="start" x="204.97" y="-184.6" font-family="Times,serif" font-size="13.00">doCreateStateDiagram (idempotent)</text>
</a>
</g>
</g>
<!-- Profile&#45;&gt;AlpsItem -->
<g id="edge10" class="edge">
<title>Profile&#45;&gt;AlpsItem</title>
<g id="a_edge10"><a xlink:href="docs/safe.goAlpsItem.html" xlink:title="goAlpsItem, item (safe)" target="_parent">
<path fill="none" stroke="black" d="M667.14,-148.69C672.39,-154.27 677.3,-160.46 680.97,-167 703.72,-207.52 689.53,-224.83 703.97,-269 708.29,-282.24 713.58,-296.04 719.08,-309.3"/>
<polygon fill="black" stroke="black" points="715.99,-310.99 723.11,-318.84 722.44,-308.27 715.99,-310.99"/>
</a>
</g>
<g id="a_edge10&#45;label"><a xlink:href="docs/safe.goAlpsItem.html" xlink:title="goAlpsItem, item (safe)" target="_parent">
<text text-anchor="start" x="703.97" y="-244.6" font-family="Times,serif" font-size="13.00">goAlpsItem, item (safe)</text>
</a>
</g>
</g>
<!-- Profile&#45;&gt;AlpsItemEdit -->
<g id="edge11" class="edge">
<title>Profile&#45;&gt;AlpsItemEdit</title>
<g id="a_edge11"><a xlink:href="docs/safe.goAlpsItemEdit.html" xlink:title="goAlpsItemEdit, edit&#45;form (safe)" target="_parent">
<path fill="none" stroke="black" d="M633.97,-91.82C633.97,-79.51 633.97,-64.97 633.97,-52.36"/>
<polygon fill="black" stroke="black" points="637.47,-52.31 633.97,-42.31 630.47,-52.31 637.47,-52.31"/>
</a>
</g>
<g id="a_edge11&#45;label"><a xlink:href="docs/safe.goAlpsItemEdit.html" xlink:title="goAlpsItemEdit, edit&#45;form (safe)" target="_parent">
<text text-anchor="start" x="633.97" y="-63.6" font-family="Times,serif" font-size="13.00">goAlpsItemEdit, edit&#45;form (safe)</text>
</a>
</g>
</g>
<!-- Profile&#45;&gt;Index -->
<g id="edge12" class="edge">
<title>Profile&#45;&gt;Index</title>
<g id="a_edge12"><a xlink:href="docs/safe.goIndex.html" xlink:title="goIndex, collection (safe)" target="_parent">
<path fill="none" stroke="black" d="M600.84,-123.35C545.09,-127.24 436.29,-138.38 412.97,-167 401.77,-180.74 402.47,-200.64 406,-217.16"/>
<polygon fill="black" stroke="black" points="402.62,-218.09 408.48,-226.92 409.41,-216.37 402.62,-218.09"/>
</a>
</g>
<g id="a_edge12&#45;label"><a xlink:href="docs/safe.goIndex.html" xlink:title="goIndex, collection (safe)" target="_parent">
<text text-anchor="start" x="412.97" y="-184.6" font-family="Times,serif" font-size="13.00">goIndex, collection (safe)</text>
</a>
</g>
</g>
<!-- Profile&#45;&gt;Profile -->
<g id="edge13" class="edge">
<title>Profile&#45;&gt;Profile</title>
<g id="a_edge13"><a xlink:href="docs/unsafe.doCreate.html" xlink:title="doCreate (unsafe)" target="_parent">
<path fill="none" stroke="black" d="M667.32,-130.23C677.24,-129.94 684.97,-126.7 684.97,-120.5 684.97,-116.63 681.95,-113.91 677.26,-112.34"/>
<polygon fill="black" stroke="black" points="677.74,-108.88 667.32,-110.77 676.65,-115.79 677.74,-108.88"/>
</a>
</g>
<g id="a_edge13&#45;label"><a xlink:href="docs/unsafe.doCreate.html" xlink:title="doCreate (unsafe)" target="_parent">
<text text-anchor="start" x="684.97" y="-117.1" font-family="Times,serif" font-size="13.00">doCreate (unsafe)</text>
</a>
</g>
</g>
</g>
</svg>
