<?xml version="1.0" encoding="UTF-8" standalone="no"?>
<!DOCTYPE svg PUBLIC "-//W3C//DTD SVG 1.1//EN"
 "http://www.w3.org/Graphics/SVG/1.1/DTD/svg11.dtd">
<!-- Generated by graphviz version 2.47.1 (20210417.1919)
 -->
<!-- Title: application_state_diagram Pages: 1 -->
<svg width="1170pt" height="469pt"
 viewBox="0.00 0.00 1170.27 469.00" xmlns="http://www.w3.org/2000/svg" xmlns:xlink="http://www.w3.org/1999/xlink">
<g id="graph0" class="graph" transform="scale(1 1) rotate(0) translate(4 465)">
<title>application_state_diagram</title>
<g id="a_graph0"><a xlink:href="index.html" xlink:title="MaAlps" target="_parent">
<polygon fill="white" stroke="transparent" points="-4,4 -4,-465 1166.27,-465 1166.27,4 -4,4"/>
<text text-anchor="middle" x="581.13" y="-445.8" font-family="Helvetica,sans-Serif" font-size="14.00">MaAlps</text>
</a>
</g>
<!-- AlpsItem -->
<g id="node1" class="node">
<title>AlpsItem</title>
<g id="a_node1"><a xlink:href="docs/semantic.AlpsItem.html" xlink:title="&lt;TABLE&gt;" target="_parent">
<polygon fill="lightgray" stroke="black" stroke-width="2" points="726.77,-438 643.77,-438 643.77,-306 726.77,-306 726.77,-438"/>
<text text-anchor="start" x="659.77" y="-420.8" font-family="Times,serif" font-size="14.00">AlpsItem</text>
<text text-anchor="start" x="675.77" y="-405.8" font-family="Times,serif" font-size="14.00">(id)</text>
<text text-anchor="start" x="659.27" y="-390.8" font-family="Times,serif" font-size="14.00">(isPublic)</text>
<text text-anchor="start" x="654.27" y="-375.8" font-family="Times,serif" font-size="14.00">(profileUrl)</text>
<text text-anchor="start" x="670.27" y="-360.8" font-family="Times,serif" font-size="14.00">(title)</text>
<text text-anchor="start" x="668.27" y="-345.8" font-family="Times,serif" font-size="14.00">(User)</text>
<text text-anchor="start" x="650.27" y="-330.8" font-family="Times,serif" font-size="14.00">(mediaType)</text>
<text text-anchor="start" x="662.77" y="-315.8" font-family="Times,serif" font-size="14.00">(asdUrl)</text>
</a>
</g>
</g>
<!-- AlpsItemEdit -->
<g id="node2" class="node">
<title>AlpsItemEdit</title>
<g id="a_node2"><a xlink:href="docs/semantic.AlpsItemEdit.html" xlink:title="&lt;TABLE&gt;" target="_parent">
<polygon fill="lightgray" stroke="black" stroke-width="2" points="659.27,-42 573.27,-42 573.27,0 659.27,0 659.27,-42"/>
<text text-anchor="start" x="579.27" y="-24.8" font-family="Times,serif" font-size="14.00">AlpsItemEdit</text>
<text text-anchor="start" x="585.77" y="-9.8" font-family="Times,serif" font-size="14.00">(AlpsItem)</text>
</a>
</g>
</g>
<!-- AlpsItem&#45;&gt;AlpsItemEdit -->
<g id="edge1" class="edge">
<title>AlpsItem&#45;&gt;AlpsItemEdit</title>
<g id="a_edge1"><a xlink:href="docs/safe.goAlpsItemEdit.html" xlink:title="goAlpsItemEdit, edit&#45;form (safe)" target="_parent">
<path fill="none" stroke="black" d="M643.75,-365.94C508.59,-348.53 85.38,-286.3 7.27,-181 -61.85,-87.82 402.67,-39.83 563.13,-26.17"/>
<polygon fill="black" stroke="black" points="563.58,-29.64 573.25,-25.32 562.99,-22.67 563.58,-29.64"/>
</a>
</g>
<g id="a_edge1&#45;label"><a xlink:href="docs/safe.goAlpsItemEdit.html" xlink:title="goAlpsItemEdit, edit&#45;form (safe)" target="_parent">
<text text-anchor="middle" x="95.27" y="-170.6" font-family="Times,serif" font-size="13.00">goAlpsItemEdit, edit&#45;form (safe)</text>
</a>
</g>
</g>
<!-- Index -->
<g id="node3" class="node">
<title>Index</title>
<g id="a_node3"><a xlink:href="docs/semantic.Index.html" xlink:title="&lt;TABLE&gt;" target="_parent">
<polygon fill="lightgray" stroke="black" stroke-width="2" points="443.27,-256 361.27,-256 361.27,-199 443.27,-199 443.27,-256"/>
<text text-anchor="start" x="386.77" y="-238.3" font-family="Times,serif" font-size="14.00">Index</text>
<text text-anchor="start" x="367.27" y="-223.3" font-family="Times,serif" font-size="14.00">(PublicAlps)</text>
<text text-anchor="start" x="371.77" y="-208.3" font-family="Times,serif" font-size="14.00">(AlpsItem)</text>
</a>
</g>
</g>
<!-- AlpsItem&#45;&gt;Index -->
<g id="edge2" class="edge">
<title>AlpsItem&#45;&gt;Index</title>
<g id="a_edge2"><a xlink:href="docs/safe.goIndex.html" xlink:title="goIndex, collection (safe)" target="_parent">
<path fill="none" stroke="black" d="M643.69,-366.39C565.43,-356.75 401.01,-331.69 367.27,-288 361.67,-280.76 362.53,-272.54 366.49,-264.57"/>
<polygon fill="black" stroke="black" points="369.47,-266.41 371.84,-256.09 363.55,-262.68 369.47,-266.41"/>
</a>
</g>
<g id="a_edge2&#45;label"><a xlink:href="docs/safe.goIndex.html" xlink:title="goIndex, collection (safe)" target="_parent">
<text text-anchor="middle" x="436.27" y="-277.6" font-family="Times,serif" font-size="13.00">goIndex, collection (safe)</text>
</a>
</g>
</g>
<!-- MyAlps -->
<g id="node4" class="node">
<title>MyAlps</title>
<g id="a_node4"><a xlink:href="docs/semantic.MyAlps.html" xlink:title="&lt;TABLE&gt;" target="_parent">
<polygon fill="lightgray" stroke="black" stroke-width="2" points="652.77,-149 579.77,-149 579.77,-92 652.77,-92 652.77,-149"/>
<text text-anchor="start" x="593.77" y="-131.3" font-family="Times,serif" font-size="14.00">MyAlps</text>
<text text-anchor="start" x="586.27" y="-116.3" font-family="Times,serif" font-size="14.00">(AlpsItem)</text>
<text text-anchor="start" x="599.27" y="-101.3" font-family="Times,serif" font-size="14.00">(User)</text>
</a>
</g>
</g>
<!-- AlpsItem&#45;&gt;MyAlps -->
<g id="edge3" class="edge">
<title>AlpsItem&#45;&gt;MyAlps</title>
<path fill="none" stroke="black" d="M726.97,-370.72C797.76,-368.12 931.99,-352.89 912.27,-274 903.1,-237.35 901.46,-222.97 872.27,-199 811.41,-149.04 718.85,-131.26 663.29,-124.95"/>
<polygon fill="black" stroke="black" points="663.34,-121.44 653.03,-123.87 662.61,-128.4 663.34,-121.44"/>
<g id="a_edge3_0"><a xlink:href="docs/idempotent.doDelete.html" xlink:title="&lt;TABLE&gt;">
<text text-anchor="start" x="911.77" y="-234.1" font-family="Times,serif" font-size="13.00">doDelete (idempotent)</text>
</a>
</g>
<g id="a_edge3_1"><a xlink:href="docs/safe.goMyAlps.html" xlink:title="&lt;TABLE&gt;">
<text text-anchor="start" x="911.77" y="-214.1" font-family="Times,serif" font-size="13.00">goMyAlps (safe)</text>
</a>
</g>
</g>
<!-- User -->
<g id="node5" class="node">
<title>User</title>
<g id="a_node5"><a xlink:href="docs/semantic.User.html" xlink:title="&lt;TABLE&gt;" target="_parent">
<polygon fill="lightgray" stroke="black" stroke-width="2" points="863.27,-248.5 809.27,-248.5 809.27,-206.5 863.27,-206.5 863.27,-248.5"/>
<text text-anchor="start" x="823.27" y="-231.3" font-family="Times,serif" font-size="14.00">User</text>
<text text-anchor="start" x="826.27" y="-216.3" font-family="Times,serif" font-size="14.00">(id)</text>
</a>
</g>
</g>
<!-- AlpsItem&#45;&gt;User -->
<g id="edge4" class="edge">
<title>AlpsItem&#45;&gt;User</title>
<g id="a_edge4"><a xlink:href="docs/safe.goUser.html" xlink:title="goUser (safe)" target="_parent">
<path fill="none" stroke="black" d="M727.08,-358.87C760.87,-346.72 806.58,-324.5 830.27,-288 835.8,-279.47 837.98,-268.75 838.56,-258.77"/>
<polygon fill="black" stroke="black" points="842.06,-258.8 838.66,-248.76 835.06,-258.73 842.06,-258.8"/>
</a>
</g>
<g id="a_edge4&#45;label"><a xlink:href="docs/safe.goUser.html" xlink:title="goUser (safe)" target="_parent">
<text text-anchor="middle" x="871.77" y="-277.6" font-family="Times,serif" font-size="13.00">goUser (safe)</text>
</a>
</g>
</g>
<!-- AlpsItemEdit&#45;&gt;AlpsItem -->
<g id="edge5" class="edge">
<title>AlpsItemEdit&#45;&gt;AlpsItem</title>
<g id="a_edge5"><a xlink:href="docs/idempotent.doEdit.html" xlink:title="doEdit, edit (idempotent)" target="_parent">
<path fill="none" stroke="black" d="M659.48,-24.11C750.66,-31.24 960.9,-62.45 1040.27,-199 1109.35,-317.86 851.83,-356.07 737.42,-367.03"/>
<polygon fill="black" stroke="black" points="736.77,-363.58 727.13,-367.98 737.41,-370.55 736.77,-363.58"/>
</a>
</g>
<g id="a_edge5&#45;label"><a xlink:href="docs/idempotent.doEdit.html" xlink:title="doEdit, edit (idempotent)" target="_parent">
<text text-anchor="middle" x="1094.77" y="-170.6" font-family="Times,serif" font-size="13.00">doEdit, edit (idempotent)</text>
</a>
</g>
</g>
<!-- Index&#45;&gt;AlpsItem -->
<g id="edge6" class="edge">
<title>Index&#45;&gt;AlpsItem</title>
<g id="a_edge6"><a xlink:href="docs/safe.goAlpsItem.html" xlink:title="goAlpsItem, item (safe)" target="_parent">
<path fill="none" stroke="black" d="M443.45,-245.23C462.53,-253.35 485.34,-263.59 505.27,-274 515.87,-279.54 517.86,-282.09 528.27,-288 563.25,-307.87 603.37,-329.05 634.29,-345.04"/>
<polygon fill="black" stroke="black" points="633.08,-348.36 643.58,-349.83 636.29,-342.14 633.08,-348.36"/>
</a>
</g>
<g id="a_edge6&#45;label"><a xlink:href="docs/safe.goAlpsItem.html" xlink:title="goAlpsItem, item (safe)" target="_parent">
<text text-anchor="middle" x="591.77" y="-277.6" font-family="Times,serif" font-size="13.00">goAlpsItem, item (safe)</text>
</a>
</g>
</g>
<!-- Index&#45;&gt;MyAlps -->
<g id="edge7" class="edge">
<title>Index&#45;&gt;MyAlps</title>
<g id="a_edge7"><a xlink:href="docs/safe.goMyAlps.html" xlink:title="goMyAlps (safe)" target="_parent">
<path fill="none" stroke="black" d="M443.35,-217.15C471.87,-209.7 510.18,-197.72 541.27,-181 554.22,-174.03 567.19,-164.77 578.6,-155.63"/>
<polygon fill="black" stroke="black" points="581.12,-158.09 586.62,-149.03 576.67,-152.68 581.12,-158.09"/>
</a>
</g>
<g id="a_edge7&#45;label"><a xlink:href="docs/safe.goMyAlps.html" xlink:title="goMyAlps (safe)" target="_parent">
<text text-anchor="middle" x="609.77" y="-170.6" font-family="Times,serif" font-size="13.00">goMyAlps (safe)</text>
</a>
</g>
</g>
<!-- StateDiagram -->
<g id="node6" class="node">
<title>StateDiagram</title>
<g id="a_node6"><a xlink:href="docs/semantic.StateDiagram.html" xlink:title="StateDiagram" target="_parent">
<polygon fill="lightgray" stroke="black" stroke-width="2" points="230.27,-138.5 138.27,-138.5 138.27,-102.5 230.27,-102.5 230.27,-138.5"/>
<text text-anchor="middle" x="184.27" y="-116.8" font-family="Times,serif" font-size="14.00">StateDiagram</text>
</a>
</g>
</g>
<!-- Index&#45;&gt;StateDiagram -->
<g id="edge8" class="edge">
<title>Index&#45;&gt;StateDiagram</title>
<g id="a_edge8"><a xlink:href="docs/idempotent.doCreateStateDiagram.html" xlink:title="doCreateStateDiagram (idempotent)" target="_parent">
<path fill="none" stroke="black" d="M360.85,-222.77C307.17,-217.05 217.77,-204.28 195.27,-181 187.13,-172.59 183.99,-160.23 183.04,-148.95"/>
<polygon fill="black" stroke="black" points="186.53,-148.52 182.71,-138.64 179.54,-148.74 186.53,-148.52"/>
</a>
</g>
<g id="a_edge8&#45;label"><a xlink:href="docs/idempotent.doCreateStateDiagram.html" xlink:title="doCreateStateDiagram (idempotent)" target="_parent">
<text text-anchor="middle" x="292.77" y="-170.6" font-family="Times,serif" font-size="13.00">doCreateStateDiagram (idempotent)</text>
</a>
</g>
</g>
<!-- MyAlps&#45;&gt;AlpsItem -->
<g id="edge9" class="edge">
<title>MyAlps&#45;&gt;AlpsItem</title>
<path fill="none" stroke="black" d="M644.12,-149.16C648.45,-154.7 652.42,-160.75 655.27,-167 673.55,-207.16 681.19,-255.94 684.18,-295.74"/>
<polygon fill="black" stroke="black" points="680.7,-296.17 684.86,-305.91 687.69,-295.7 680.7,-296.17"/>
<g id="a_edge9_2"><a xlink:href="docs/unsafe.doCreate.html" xlink:title="&lt;TABLE&gt;">
<text text-anchor="start" x="684.77" y="-234.1" font-family="Times,serif" font-size="13.00">doCreate (unsafe)</text>
</a>
</g>
<g id="a_edge9_3"><a xlink:href="docs/safe.goAlpsItem.html" xlink:title="&lt;TABLE&gt;">
<text text-anchor="start" x="684.77" y="-214.1" font-family="Times,serif" font-size="13.00">goAlpsItem (safe)</text>
</a>
</g>
</g>
<!-- MyAlps&#45;&gt;AlpsItemEdit -->
<g id="edge10" class="edge">
<title>MyAlps&#45;&gt;AlpsItemEdit</title>
<g id="a_edge10"><a xlink:href="docs/safe.goAlpsItemEdit.html" xlink:title="goAlpsItemEdit, edit&#45;form (safe)" target="_parent">
<path fill="none" stroke="black" d="M616.27,-91.82C616.27,-79.51 616.27,-64.97 616.27,-52.36"/>
<polygon fill="black" stroke="black" points="619.77,-52.31 616.27,-42.31 612.77,-52.31 619.77,-52.31"/>
</a>
</g>
<g id="a_edge10&#45;label"><a xlink:href="docs/safe.goAlpsItemEdit.html" xlink:title="goAlpsItemEdit, edit&#45;form (safe)" target="_parent">
<text text-anchor="middle" x="704.27" y="-63.6" font-family="Times,serif" font-size="13.00">goAlpsItemEdit, edit&#45;form (safe)</text>
</a>
</g>
</g>
<!-- MyAlps&#45;&gt;Index -->
<g id="edge11" class="edge">
<title>MyAlps&#45;&gt;Index</title>
<g id="a_edge11"><a xlink:href="docs/safe.goIndex.html" xlink:title="goIndex, collection (safe)" target="_parent">
<path fill="none" stroke="black" d="M579.72,-123.75C523.93,-128.03 421.59,-139.51 399.27,-167 394.27,-173.15 392.53,-180.96 392.55,-188.87"/>
<polygon fill="black" stroke="black" points="389.07,-189.17 393.4,-198.83 396.04,-188.57 389.07,-189.17"/>
</a>
</g>
<g id="a_edge11&#45;label"><a xlink:href="docs/safe.goIndex.html" xlink:title="goIndex, collection (safe)" target="_parent">
<text text-anchor="middle" x="468.27" y="-170.6" font-family="Times,serif" font-size="13.00">goIndex, collection (safe)</text>
</a>
</g>
</g>
<!-- User&#45;&gt;AlpsItem -->
<g id="edge12" class="edge">
<title>User&#45;&gt;AlpsItem</title>
<g id="a_edge12"><a xlink:href="docs/safe.goAlpsItem.html" xlink:title="goAlpsItem, item (safe)" target="_parent">
<path fill="none" stroke="black" d="M809.05,-242.91C799.5,-247.56 788.59,-252.43 778.27,-256 744.24,-267.78 723.68,-247.53 699.27,-274 693.42,-280.34 689.34,-287.97 686.56,-296.13"/>
<polygon fill="black" stroke="black" points="683.14,-295.34 683.85,-305.91 689.89,-297.2 683.14,-295.34"/>
</a>
</g>
<g id="a_edge12&#45;label"><a xlink:href="docs/safe.goAlpsItem.html" xlink:title="goAlpsItem, item (safe)" target="_parent">
<text text-anchor="middle" x="762.77" y="-277.6" font-family="Times,serif" font-size="13.00">goAlpsItem, item (safe)</text>
</a>
</g>
</g>
</g>
</svg>
