<?xml version="1.0" encoding="UTF-8" standalone="no"?>
<!DOCTYPE svg PUBLIC "-//W3C//DTD SVG 1.1//EN"
 "http://www.w3.org/Graphics/SVG/1.1/DTD/svg11.dtd">
<!-- Generated by graphviz version 2.47.1 (20210417.1919)
 -->
<!-- Title: application_state_diagram Pages: 1 -->
<svg width="881pt" height="454pt"
 viewBox="0.00 0.00 881.00 454.00" xmlns="http://www.w3.org/2000/svg" xmlns:xlink="http://www.w3.org/1999/xlink">
<g id="graph0" class="graph" transform="scale(1 1) rotate(0) translate(4 450)">
<title>application_state_diagram</title>
<g id="a_graph0"><a xlink:href="index.html" xlink:title="MaAlps" target="_parent">
<polygon fill="white" stroke="transparent" points="-4,4 -4,-450 877,-450 877,4 -4,4"/>
<text text-anchor="middle" x="436.5" y="-430.8" font-family="Helvetica,sans-Serif" font-size="14.00">MaAlps</text>
</a>
</g>
<!-- AlpsItem -->
<g id="node1" class="node">
<title>AlpsItem</title>
<g id="a_node1"><a xlink:href="docs/semantic.AlpsItem.html" xlink:title="&lt;TABLE&gt;" target="_parent">
<polygon fill="lightgray" stroke="black" stroke-width="2" points="588.5,-423 505.5,-423 505.5,-291 588.5,-291 588.5,-423"/>
<text text-anchor="start" x="521.5" y="-405.8" font-family="Times,serif" font-size="14.00">AlpsItem</text>
<text text-anchor="start" x="537.5" y="-390.8" font-family="Times,serif" font-size="14.00">(id)</text>
<text text-anchor="start" x="521" y="-375.8" font-family="Times,serif" font-size="14.00">(isPublic)</text>
<text text-anchor="start" x="516" y="-360.8" font-family="Times,serif" font-size="14.00">(profileUrl)</text>
<text text-anchor="start" x="532" y="-345.8" font-family="Times,serif" font-size="14.00">(title)</text>
<text text-anchor="start" x="530" y="-330.8" font-family="Times,serif" font-size="14.00">(User)</text>
<text text-anchor="start" x="512" y="-315.8" font-family="Times,serif" font-size="14.00">(mediaType)</text>
<text text-anchor="start" x="524.5" y="-300.8" font-family="Times,serif" font-size="14.00">(asdUrl)</text>
</a>
</g>
</g>
<!-- Index -->
<g id="node3" class="node">
<title>Index</title>
<g id="a_node3"><a xlink:href="docs/semantic.Index.html" xlink:title="&lt;TABLE&gt;" target="_parent">
<polygon fill="lightgray" stroke="black" stroke-width="2" points="305,-241 223,-241 223,-184 305,-184 305,-241"/>
<text text-anchor="start" x="248.5" y="-223.3" font-family="Times,serif" font-size="14.00">Index</text>
<text text-anchor="start" x="229" y="-208.3" font-family="Times,serif" font-size="14.00">(PublicAlps)</text>
<text text-anchor="start" x="233.5" y="-193.3" font-family="Times,serif" font-size="14.00">(AlpsItem)</text>
</a>
</g>
</g>
<!-- AlpsItem&#45;&gt;Index -->
<g id="edge1" class="edge">
<title>AlpsItem&#45;&gt;Index</title>
<g id="a_edge1"><a xlink:href="docs/safe.goIndex.html" xlink:title="goIndex, collection (safe)" target="_parent">
<path fill="none" stroke="black" d="M505.43,-351.39C427.16,-341.75 262.75,-316.69 229,-273 223.4,-265.76 224.26,-257.54 228.22,-249.57"/>
<polygon fill="black" stroke="black" points="231.2,-251.41 233.58,-241.09 225.28,-247.68 231.2,-251.41"/>
</a>
</g>
<g id="a_edge1&#45;label"><a xlink:href="docs/safe.goIndex.html" xlink:title="goIndex, collection (safe)" target="_parent">
<text text-anchor="middle" x="298" y="-262.6" font-family="Times,serif" font-size="13.00">goIndex, collection (safe)</text>
</a>
</g>
</g>
<!-- MyAlps -->
<g id="node4" class="node">
<title>MyAlps</title>
<g id="a_node4"><a xlink:href="docs/semantic.MyAlps.html" xlink:title="&lt;TABLE&gt;" target="_parent">
<polygon fill="lightgray" stroke="black" stroke-width="2" points="490.5,-134 417.5,-134 417.5,-92 490.5,-92 490.5,-134"/>
<text text-anchor="start" x="431.5" y="-116.8" font-family="Times,serif" font-size="14.00">MyAlps</text>
<text text-anchor="start" x="424" y="-101.8" font-family="Times,serif" font-size="14.00">(AlpsItem)</text>
</a>
</g>
</g>
<!-- AlpsItem&#45;&gt;MyAlps -->
<g id="edge2" class="edge">
<title>AlpsItem&#45;&gt;MyAlps</title>
<g id="a_edge2"><a xlink:href="docs/safe.goMyAlps.html" xlink:title="goMyAlps (safe)" target="_parent">
<path fill="none" stroke="black" d="M543.42,-290.77C539.54,-239.89 531.8,-174.24 517,-152 512.47,-145.2 506.27,-139.42 499.52,-134.58"/>
<polygon fill="black" stroke="black" points="501.06,-131.41 490.75,-128.95 497.28,-137.3 501.06,-131.41"/>
</a>
</g>
<g id="a_edge2&#45;label"><a xlink:href="docs/safe.goMyAlps.html" xlink:title="goMyAlps (safe)" target="_parent">
<text text-anchor="middle" x="584.5" y="-209.1" font-family="Times,serif" font-size="13.00">goMyAlps (safe)</text>
</a>
</g>
</g>
<!-- User -->
<g id="node5" class="node">
<title>User</title>
<g id="a_node5"><a xlink:href="docs/semantic.User.html" xlink:title="&lt;TABLE&gt;" target="_parent">
<polygon fill="lightgray" stroke="black" stroke-width="2" points="694,-233.5 640,-233.5 640,-191.5 694,-191.5 694,-233.5"/>
<text text-anchor="start" x="654" y="-216.3" font-family="Times,serif" font-size="14.00">User</text>
<text text-anchor="start" x="657" y="-201.3" font-family="Times,serif" font-size="14.00">(id)</text>
</a>
</g>
</g>
<!-- AlpsItem&#45;&gt;User -->
<g id="edge3" class="edge">
<title>AlpsItem&#45;&gt;User</title>
<g id="a_edge3"><a xlink:href="docs/safe.goUser.html" xlink:title="goUser (safe)" target="_parent">
<path fill="none" stroke="black" d="M548.98,-290.89C551.99,-279.19 556.97,-267.9 565,-259 583.93,-238.01 600.41,-253.01 626,-241 627.6,-240.25 629.21,-239.44 630.81,-238.59"/>
<polygon fill="black" stroke="black" points="632.99,-241.37 639.89,-233.33 629.48,-235.32 632.99,-241.37"/>
</a>
</g>
<g id="a_edge3&#45;label"><a xlink:href="docs/safe.goUser.html" xlink:title="goUser (safe)" target="_parent">
<text text-anchor="middle" x="601.5" y="-262.6" font-family="Times,serif" font-size="13.00">goUser (safe)</text>
</a>
</g>
</g>
<!-- AlpsItemEdit -->
<g id="node2" class="node">
<title>AlpsItemEdit</title>
<g id="a_node2"><a xlink:href="docs/semantic.AlpsItemEdit.html" xlink:title="&lt;TABLE&gt;" target="_parent">
<polygon fill="lightgray" stroke="black" stroke-width="2" points="496,-42 410,-42 410,0 496,0 496,-42"/>
<text text-anchor="start" x="416" y="-24.8" font-family="Times,serif" font-size="14.00">AlpsItemEdit</text>
<text text-anchor="start" x="422.5" y="-9.8" font-family="Times,serif" font-size="14.00">(AlpsItem)</text>
</a>
</g>
</g>
<!-- AlpsItemEdit&#45;&gt;MyAlps -->
<g id="edge4" class="edge">
<title>AlpsItemEdit&#45;&gt;MyAlps</title>
<g id="a_edge4"><a xlink:href="docs/idempotent.doEdit.html" xlink:title="doEdit, edit (idempotent)" target="_parent">
<path fill="none" stroke="black" d="M496.11,-33.08C509.64,-38.81 523.09,-47.36 531,-60 542.04,-77.65 522.37,-90.72 500.16,-99.34"/>
<polygon fill="black" stroke="black" points="498.81,-96.11 490.57,-102.77 501.16,-102.7 498.81,-96.11"/>
</a>
</g>
<g id="a_edge4&#45;label"><a xlink:href="docs/idempotent.doEdit.html" xlink:title="doEdit, edit (idempotent)" target="_parent">
<text text-anchor="middle" x="602.5" y="-63.6" font-family="Times,serif" font-size="13.00">doEdit, edit (idempotent)</text>
</a>
</g>
</g>
<!-- Index&#45;&gt;AlpsItem -->
<g id="edge5" class="edge">
<title>Index&#45;&gt;AlpsItem</title>
<g id="a_edge5"><a xlink:href="docs/safe.goAlpsItem.html" xlink:title="goAlpsItem, item (safe)" target="_parent">
<path fill="none" stroke="black" d="M305.18,-230.23C324.26,-238.35 347.07,-248.59 367,-259 377.61,-264.54 379.59,-267.09 390,-273 424.99,-292.87 465.1,-314.05 496.02,-330.04"/>
<polygon fill="black" stroke="black" points="494.82,-333.36 505.31,-334.83 498.03,-327.14 494.82,-333.36"/>
</a>
</g>
<g id="a_edge5&#45;label"><a xlink:href="docs/safe.goAlpsItem.html" xlink:title="goAlpsItem, item (safe)" target="_parent">
<text text-anchor="middle" x="453.5" y="-262.6" font-family="Times,serif" font-size="13.00">goAlpsItem, item (safe)</text>
</a>
</g>
</g>
<!-- Index&#45;&gt;MyAlps -->
<g id="edge6" class="edge">
<title>Index&#45;&gt;MyAlps</title>
<g id="a_edge6"><a xlink:href="docs/safe.goMyAlps.html" xlink:title="goMyAlps (safe)" target="_parent">
<path fill="none" stroke="black" d="M257.48,-183.73C256.54,-172.72 257.79,-160.65 265,-152 282.8,-130.63 357.13,-120.99 407.1,-116.86"/>
<polygon fill="black" stroke="black" points="407.67,-120.33 417.36,-116.06 407.12,-113.35 407.67,-120.33"/>
</a>
</g>
<g id="a_edge6&#45;label"><a xlink:href="docs/safe.goMyAlps.html" xlink:title="goMyAlps (safe)" target="_parent">
<text text-anchor="middle" x="310.5" y="-155.6" font-family="Times,serif" font-size="13.00">goMyAlps (safe)</text>
</a>
</g>
</g>
<!-- StateDiagram -->
<g id="node6" class="node">
<title>StateDiagram</title>
<g id="a_node6"><a xlink:href="docs/semantic.StateDiagram.html" xlink:title="StateDiagram" target="_parent">
<polygon fill="lightgray" stroke="black" stroke-width="2" points="92,-131 0,-131 0,-95 92,-95 92,-131"/>
<text text-anchor="middle" x="46" y="-109.3" font-family="Times,serif" font-size="14.00">StateDiagram</text>
</a>
</g>
</g>
<!-- Index&#45;&gt;StateDiagram -->
<g id="edge7" class="edge">
<title>Index&#45;&gt;StateDiagram</title>
<g id="a_edge7"><a xlink:href="docs/idempotent.doCreateStateDiagram.html" xlink:title="doCreateStateDiagram (idempotent)" target="_parent">
<path fill="none" stroke="black" d="M222.99,-207.36C170.34,-201.23 83,-188.02 60,-166 53.3,-159.59 49.69,-150.34 47.78,-141.41"/>
<polygon fill="black" stroke="black" points="51.21,-140.63 46.24,-131.27 44.28,-141.69 51.21,-140.63"/>
</a>
</g>
<g id="a_edge7&#45;label"><a xlink:href="docs/idempotent.doCreateStateDiagram.html" xlink:title="doCreateStateDiagram (idempotent)" target="_parent">
<text text-anchor="middle" x="157.5" y="-155.6" font-family="Times,serif" font-size="13.00">doCreateStateDiagram (idempotent)</text>
</a>
</g>
</g>
<!-- MyAlps&#45;&gt;AlpsItem -->
<g id="edge8" class="edge">
<title>MyAlps&#45;&gt;AlpsItem</title>
<path fill="none" stroke="black" d="M490.58,-115.7C565.14,-121.5 731.6,-146.98 778,-259 808.67,-333.03 675.56,-350.75 598.52,-354.86"/>
<polygon fill="black" stroke="black" points="598.32,-351.36 588.5,-355.34 598.66,-358.36 598.32,-351.36"/>
<g id="a_edge8_0"><a xlink:href="docs/unsafe.doCreate.html" xlink:title="&lt;TABLE&gt;">
<text text-anchor="start" x="772.5" y="-219.1" font-family="Times,serif" font-size="13.00">doCreate (unsafe)</text>
</a>
</g>
<g id="a_edge8_1"><a xlink:href="docs/safe.goAlpsItem.html" xlink:title="&lt;TABLE&gt;">
<text text-anchor="start" x="772.5" y="-199.1" font-family="Times,serif" font-size="13.00">goAlpsItem (safe)</text>
</a>
</g>
</g>
<!-- MyAlps&#45;&gt;AlpsItemEdit -->
<g id="edge9" class="edge">
<title>MyAlps&#45;&gt;AlpsItemEdit</title>
<g id="a_edge9"><a xlink:href="docs/safe.goAlpsItemEdit.html" xlink:title="goAlpsItemEdit, edit&#45;form (safe)" target="_parent">
<path fill="none" stroke="black" d="M417.35,-108.84C394.17,-104.73 365.88,-95.34 351,-74 335.04,-51.09 367.3,-37.67 399.67,-30.22"/>
<polygon fill="black" stroke="black" points="400.62,-33.6 409.67,-28.09 399.16,-26.75 400.62,-33.6"/>
</a>
</g>
<g id="a_edge9&#45;label"><a xlink:href="docs/safe.goAlpsItemEdit.html" xlink:title="goAlpsItemEdit, edit&#45;form (safe)" target="_parent">
<text text-anchor="middle" x="439" y="-63.6" font-family="Times,serif" font-size="13.00">goAlpsItemEdit, edit&#45;form (safe)</text>
</a>
</g>
</g>
<!-- MyAlps&#45;&gt;Index -->
<g id="edge10" class="edge">
<title>MyAlps&#45;&gt;Index</title>
<g id="a_edge10"><a xlink:href="docs/safe.goIndex.html" xlink:title="goIndex, collection (safe)" target="_parent">
<path fill="none" stroke="black" d="M417.46,-131.8C405.14,-137.99 391.37,-145.11 379,-152 368.54,-157.82 366.48,-160.23 356,-166 342.68,-173.33 328.02,-180.83 314.4,-187.57"/>
<polygon fill="black" stroke="black" points="312.59,-184.55 305.16,-192.1 315.68,-190.84 312.59,-184.55"/>
</a>
</g>
<g id="a_edge10&#45;label"><a xlink:href="docs/safe.goIndex.html" xlink:title="goIndex, collection (safe)" target="_parent">
<text text-anchor="middle" x="448" y="-155.6" font-family="Times,serif" font-size="13.00">goIndex, collection (safe)</text>
</a>
</g>
</g>
<!-- User&#45;&gt;AlpsItem -->
<g id="edge11" class="edge">
<title>User&#45;&gt;AlpsItem</title>
<g id="a_edge11"><a xlink:href="docs/safe.goAlpsItem.html" xlink:title="goAlpsItem, item (safe)" target="_parent">
<path fill="none" stroke="black" d="M659.46,-233.58C654.4,-245.65 647.02,-260.95 638,-273 626.11,-288.89 610.88,-304.17 596.29,-317.19"/>
<polygon fill="black" stroke="black" points="593.97,-314.57 588.74,-323.79 598.58,-319.84 593.97,-314.57"/>
</a>
</g>
<g id="a_edge11&#45;label"><a xlink:href="docs/safe.goAlpsItem.html" xlink:title="goAlpsItem, item (safe)" target="_parent">
<text text-anchor="middle" x="710.5" y="-262.6" font-family="Times,serif" font-size="13.00">goAlpsItem, item (safe)</text>
</a>
</g>
</g>
</g>
</svg>
