<?xml version="1.0" encoding="UTF-8" standalone="no"?>
<!DOCTYPE svg PUBLIC "-//W3C//DTD SVG 1.1//EN"
 "http://www.w3.org/Graphics/SVG/1.1/DTD/svg11.dtd">
<!-- Generated by graphviz version 2.47.0 (20210316.0004)
 -->
<!-- Title: application_state_diagram Pages: 1 -->
<svg width="749pt" height="454pt"
 viewBox="0.00 0.00 749.00 454.00" xmlns="http://www.w3.org/2000/svg" xmlns:xlink="http://www.w3.org/1999/xlink">
<g id="graph0" class="graph" transform="scale(1 1) rotate(0) translate(4 450)">
<title>application_state_diagram</title>
<g id="a_graph0"><a xlink:href="index.html" xlink:title="MaAlps" target="_parent">
<polygon fill="white" stroke="transparent" points="-4,4 -4,-450 745,-450 745,4 -4,4"/>
<text text-anchor="middle" x="370.5" y="-430.8" font-family="Helvetica,sans-Serif" font-size="14.00">MaAlps</text>
</a>
</g>
<!-- AlpsItem -->
<g id="node1" class="node">
<title>AlpsItem</title>
<g id="a_node1"><a xlink:href="docs/semantic.AlpsItem.html" xlink:title="&lt;TABLE&gt;" target="_parent">
<polygon fill="lightgray" stroke="black" stroke-width="2" points="501.5,-423 418.5,-423 418.5,-291 501.5,-291 501.5,-423"/>
<text text-anchor="start" x="434.5" y="-405.8" font-family="Times,serif" font-size="14.00">AlpsItem</text>
<text text-anchor="start" x="450.5" y="-390.8" font-family="Times,serif" font-size="14.00">(id)</text>
<text text-anchor="start" x="433" y="-375.8" font-family="Times,serif" font-size="14.00">(ownerId)</text>
<text text-anchor="start" x="445" y="-360.8" font-family="Times,serif" font-size="14.00">(title)</text>
<text text-anchor="start" x="425" y="-345.8" font-family="Times,serif" font-size="14.00">(mediaType)</text>
<text text-anchor="start" x="429" y="-330.8" font-family="Times,serif" font-size="14.00">(profileUrl)</text>
<text text-anchor="start" x="437.5" y="-315.8" font-family="Times,serif" font-size="14.00">(asdUrl)</text>
<text text-anchor="start" x="434" y="-300.8" font-family="Times,serif" font-size="14.00">(isPublic)</text>
</a>
</g>
</g>
<!-- Index -->
<g id="node3" class="node">
<title>Index</title>
<g id="a_node3"><a xlink:href="docs/semantic.Index.html" xlink:title="&lt;TABLE&gt;" target="_parent">
<polygon fill="lightgray" stroke="black" stroke-width="2" points="305,-241 223,-241 223,-184 305,-184 305,-241"/>
<text text-anchor="start" x="248.5" y="-223.3" font-family="Times,serif" font-size="14.00">Index</text>
<text text-anchor="start" x="229" y="-208.3" font-family="Times,serif" font-size="14.00">(PublicAlps)</text>
<text text-anchor="start" x="233.5" y="-193.3" font-family="Times,serif" font-size="14.00">(AlpsItem)</text>
</a>
</g>
</g>
<!-- AlpsItem&#45;&gt;Index -->
<g id="edge1" class="edge">
<title>AlpsItem&#45;&gt;Index</title>
<g id="a_edge1"><a xlink:href="docs/safe.goIndex.html" xlink:title="goIndex, collection (safe)" target="_parent">
<path fill="none" stroke="black" d="M418.14,-354.65C364.09,-350.39 271.9,-334 229,-273 223.84,-265.66 224.69,-257.53 228.47,-249.7"/>
<polygon fill="black" stroke="black" points="231.55,-251.38 233.83,-241.04 225.59,-247.7 231.55,-251.38"/>
</a>
</g>
<g id="a_edge1&#45;label"><a xlink:href="docs/safe.goIndex.html" xlink:title="goIndex, collection (safe)" target="_parent">
<text text-anchor="middle" x="298" y="-262.6" font-family="Times,serif" font-size="13.00">goIndex, collection (safe)</text>
</a>
</g>
</g>
<!-- MyAlps -->
<g id="node4" class="node">
<title>MyAlps</title>
<g id="a_node4"><a xlink:href="docs/semantic.MyAlps.html" xlink:title="&lt;TABLE&gt;" target="_parent">
<polygon fill="lightgray" stroke="black" stroke-width="2" points="490.5,-134 417.5,-134 417.5,-92 490.5,-92 490.5,-134"/>
<text text-anchor="start" x="431.5" y="-116.8" font-family="Times,serif" font-size="14.00">MyAlps</text>
<text text-anchor="start" x="424" y="-101.8" font-family="Times,serif" font-size="14.00">(AlpsItem)</text>
</a>
</g>
</g>
<!-- AlpsItem&#45;&gt;MyAlps -->
<g id="edge2" class="edge">
<title>AlpsItem&#45;&gt;MyAlps</title>
<g id="a_edge2"><a xlink:href="docs/safe.goMyAlps.html" xlink:title="goMyAlps (safe)" target="_parent">
<path fill="none" stroke="black" d="M501.66,-302.42C507.1,-293.05 511.86,-283.07 515,-273 530.99,-221.65 543.45,-198.83 517,-152 512.76,-144.49 506.37,-138.29 499.25,-133.24"/>
<polygon fill="black" stroke="black" points="500.99,-130.2 490.66,-127.83 497.26,-136.12 500.99,-130.2"/>
</a>
</g>
<g id="a_edge2&#45;label"><a xlink:href="docs/safe.goMyAlps.html" xlink:title="goMyAlps (safe)" target="_parent">
<text text-anchor="middle" x="577.5" y="-209.1" font-family="Times,serif" font-size="13.00">goMyAlps (safe)</text>
</a>
</g>
</g>
<!-- AlpsItemEdit -->
<g id="node2" class="node">
<title>AlpsItemEdit</title>
<g id="a_node2"><a xlink:href="docs/semantic.AlpsItemEdit.html" xlink:title="&lt;TABLE&gt;" target="_parent">
<polygon fill="lightgray" stroke="black" stroke-width="2" points="497,-42 411,-42 411,0 497,0 497,-42"/>
<text text-anchor="start" x="417" y="-24.8" font-family="Times,serif" font-size="14.00">AlpsItemEdit</text>
<text text-anchor="start" x="423.5" y="-9.8" font-family="Times,serif" font-size="14.00">(AlpsItem)</text>
</a>
</g>
</g>
<!-- AlpsItemEdit&#45;&gt;MyAlps -->
<g id="edge3" class="edge">
<title>AlpsItemEdit&#45;&gt;MyAlps</title>
<g id="a_edge3"><a xlink:href="docs/idempotent.doEdit.html" xlink:title="doEdit, edit (idempotent)" target="_parent">
<path fill="none" stroke="black" d="M497.08,-33.19C520.99,-41.73 543.73,-55.23 532,-74 524.68,-85.7 512.61,-93.9 500.12,-99.6"/>
<polygon fill="black" stroke="black" points="498.51,-96.47 490.56,-103.48 501.15,-102.96 498.51,-96.47"/>
</a>
</g>
<g id="a_edge3&#45;label"><a xlink:href="docs/idempotent.doEdit.html" xlink:title="doEdit, edit (idempotent)" target="_parent">
<text text-anchor="middle" x="602.5" y="-63.6" font-family="Times,serif" font-size="13.00">doEdit, edit (idempotent)</text>
</a>
</g>
</g>
<!-- Index&#45;&gt;AlpsItem -->
<g id="edge4" class="edge">
<title>Index&#45;&gt;AlpsItem</title>
<g id="a_edge4"><a xlink:href="docs/safe.goAlpsItem.html" xlink:title="goAlpsItem, item (safe)" target="_parent">
<path fill="none" stroke="black" d="M305.05,-227.37C324.75,-235.06 348.11,-245.76 367,-259 382.64,-269.96 397.78,-283.82 411.15,-297.62"/>
<polygon fill="black" stroke="black" points="408.97,-300.4 418.39,-305.25 414.05,-295.59 408.97,-300.4"/>
</a>
</g>
<g id="a_edge4&#45;label"><a xlink:href="docs/safe.goAlpsItem.html" xlink:title="goAlpsItem, item (safe)" target="_parent">
<text text-anchor="middle" x="447.5" y="-262.6" font-family="Times,serif" font-size="13.00">goAlpsItem, item (safe)</text>
</a>
</g>
</g>
<!-- Index&#45;&gt;MyAlps -->
<g id="edge5" class="edge">
<title>Index&#45;&gt;MyAlps</title>
<g id="a_edge5"><a xlink:href="docs/safe.goMyAlps.html" xlink:title="goMyAlps (safe)" target="_parent">
<path fill="none" stroke="black" d="M257.48,-183.73C256.54,-172.72 257.79,-160.65 265,-152 282.8,-130.63 357.13,-120.99 407.1,-116.86"/>
<polygon fill="black" stroke="black" points="407.67,-120.33 417.36,-116.06 407.12,-113.35 407.67,-120.33"/>
</a>
</g>
<g id="a_edge5&#45;label"><a xlink:href="docs/safe.goMyAlps.html" xlink:title="goMyAlps (safe)" target="_parent">
<text text-anchor="middle" x="310.5" y="-155.6" font-family="Times,serif" font-size="13.00">goMyAlps (safe)</text>
</a>
</g>
</g>
<!-- StateDiagram -->
<g id="node5" class="node">
<title>StateDiagram</title>
<g id="a_node5"><a xlink:href="docs/semantic.StateDiagram.html" xlink:title="StateDiagram" target="_parent">
<polygon fill="lightgray" stroke="black" stroke-width="2" points="92,-131 0,-131 0,-95 92,-95 92,-131"/>
<text text-anchor="middle" x="46" y="-109.3" font-family="Times,serif" font-size="14.00">StateDiagram</text>
</a>
</g>
</g>
<!-- Index&#45;&gt;StateDiagram -->
<g id="edge6" class="edge">
<title>Index&#45;&gt;StateDiagram</title>
<g id="a_edge6"><a xlink:href="docs/idempotent.doCreateStateDiagram.html" xlink:title="doCreateStateDiagram (idempotent)" target="_parent">
<path fill="none" stroke="black" d="M222.99,-207.36C170.34,-201.23 83,-188.02 60,-166 53.3,-159.59 49.69,-150.34 47.78,-141.41"/>
<polygon fill="black" stroke="black" points="51.21,-140.63 46.24,-131.27 44.28,-141.69 51.21,-140.63"/>
</a>
</g>
<g id="a_edge6&#45;label"><a xlink:href="docs/idempotent.doCreateStateDiagram.html" xlink:title="doCreateStateDiagram (idempotent)" target="_parent">
<text text-anchor="middle" x="157.5" y="-155.6" font-family="Times,serif" font-size="13.00">doCreateStateDiagram (idempotent)</text>
</a>
</g>
</g>
<!-- MyAlps&#45;&gt;AlpsItem -->
<g id="edge7" class="edge">
<title>MyAlps&#45;&gt;AlpsItem</title>
<path fill="none" stroke="black" d="M490.85,-117.18C531.96,-122.92 596.66,-139 627,-184 667.97,-244.77 573.56,-303.32 510.63,-333.95"/>
<polygon fill="black" stroke="black" points="509.11,-330.8 501.6,-338.26 512.13,-337.11 509.11,-330.8"/>
<g id="a_edge7_0"><a xlink:href="docs/unsafe.doCreate.html" xlink:title="&lt;TABLE&gt;">
<text text-anchor="start" x="640.5" y="-219.1" font-family="Times,serif" font-size="13.00">doCreate (unsafe)</text>
</a>
</g>
<g id="a_edge7_1"><a xlink:href="docs/safe.goAlpsItem.html" xlink:title="&lt;TABLE&gt;">
<text text-anchor="start" x="640.5" y="-199.1" font-family="Times,serif" font-size="13.00">goAlpsItem (safe)</text>
</a>
</g>
</g>
<!-- MyAlps&#45;&gt;AlpsItemEdit -->
<g id="edge8" class="edge">
<title>MyAlps&#45;&gt;AlpsItemEdit</title>
<g id="a_edge8"><a xlink:href="docs/safe.goAlpsItemEdit.html" xlink:title="goAlpsItemEdit, edit&#45;form (safe)" target="_parent">
<path fill="none" stroke="black" d="M417.44,-108.69C394.53,-104.51 366.66,-95.11 352,-74 336.07,-51.07 368.33,-37.65 400.7,-30.2"/>
<polygon fill="black" stroke="black" points="401.64,-33.58 410.69,-28.08 400.18,-26.73 401.64,-33.58"/>
</a>
</g>
<g id="a_edge8&#45;label"><a xlink:href="docs/safe.goAlpsItemEdit.html" xlink:title="goAlpsItemEdit, edit&#45;form (safe)" target="_parent">
<text text-anchor="middle" x="440" y="-63.6" font-family="Times,serif" font-size="13.00">goAlpsItemEdit, edit&#45;form (safe)</text>
</a>
</g>
</g>
<!-- MyAlps&#45;&gt;Index -->
<g id="edge9" class="edge">
<title>MyAlps&#45;&gt;Index</title>
<g id="a_edge9"><a xlink:href="docs/safe.goIndex.html" xlink:title="goIndex, collection (safe)" target="_parent">
<path fill="none" stroke="black" d="M417.46,-131.8C405.14,-137.99 391.37,-145.11 379,-152 368.54,-157.82 366.48,-160.23 356,-166 342.68,-173.33 328.02,-180.83 314.4,-187.57"/>
<polygon fill="black" stroke="black" points="312.59,-184.55 305.16,-192.1 315.68,-190.84 312.59,-184.55"/>
</a>
</g>
<g id="a_edge9&#45;label"><a xlink:href="docs/safe.goIndex.html" xlink:title="goIndex, collection (safe)" target="_parent">
<text text-anchor="middle" x="448" y="-155.6" font-family="Times,serif" font-size="13.00">goIndex, collection (safe)</text>
</a>
</g>
</g>
</g>
</svg>
