<?xml version="1.0" encoding="UTF-8" standalone="no"?>
<!DOCTYPE svg PUBLIC "-//W3C//DTD SVG 1.1//EN"
 "http://www.w3.org/Graphics/SVG/1.1/DTD/svg11.dtd">
<!-- Generated by graphviz version 2.47.1 (20210417.1919)
 -->
<!-- Title: application_state_diagram Pages: 1 -->
<svg width="1167pt" height="454pt"
 viewBox="0.00 0.00 1166.66 454.00" xmlns="http://www.w3.org/2000/svg" xmlns:xlink="http://www.w3.org/1999/xlink">
<g id="graph0" class="graph" transform="scale(1 1) rotate(0) translate(4 450)">
<title>application_state_diagram</title>
<g id="a_graph0"><a xlink:href="index.html" xlink:title="MaAlps" target="_parent">
<polygon fill="white" stroke="transparent" points="-4,4 -4,-450 1162.66,-450 1162.66,4 -4,4"/>
<text text-anchor="middle" x="579.33" y="-430.8" font-family="Helvetica,sans-Serif" font-size="14.00">MaAlps</text>
</a>
</g>
<!-- AlpsItem -->
<g id="node1" class="node">
<title>AlpsItem</title>
<g id="a_node1"><a xlink:href="docs/semantic.AlpsItem.html" xlink:title="&lt;TABLE&gt;" target="_parent">
<polygon fill="lightgray" stroke="black" stroke-width="2" points="727.16,-423 644.16,-423 644.16,-291 727.16,-291 727.16,-423"/>
<text text-anchor="start" x="660.16" y="-405.8" font-family="Times,serif" font-size="14.00">AlpsItem</text>
<text text-anchor="start" x="676.16" y="-390.8" font-family="Times,serif" font-size="14.00">(id)</text>
<text text-anchor="start" x="659.66" y="-375.8" font-family="Times,serif" font-size="14.00">(isPublic)</text>
<text text-anchor="start" x="654.66" y="-360.8" font-family="Times,serif" font-size="14.00">(profileUrl)</text>
<text text-anchor="start" x="670.66" y="-345.8" font-family="Times,serif" font-size="14.00">(title)</text>
<text text-anchor="start" x="668.66" y="-330.8" font-family="Times,serif" font-size="14.00">(User)</text>
<text text-anchor="start" x="650.66" y="-315.8" font-family="Times,serif" font-size="14.00">(mediaType)</text>
<text text-anchor="start" x="663.16" y="-300.8" font-family="Times,serif" font-size="14.00">(asdUrl)</text>
</a>
</g>
</g>
<!-- AlpsItemEdit -->
<g id="node2" class="node">
<title>AlpsItemEdit</title>
<g id="a_node2"><a xlink:href="docs/semantic.AlpsItemEdit.html" xlink:title="&lt;TABLE&gt;" target="_parent">
<polygon fill="lightgray" stroke="black" stroke-width="2" points="659.66,-42 573.66,-42 573.66,0 659.66,0 659.66,-42"/>
<text text-anchor="start" x="579.66" y="-24.8" font-family="Times,serif" font-size="14.00">AlpsItemEdit</text>
<text text-anchor="start" x="586.16" y="-9.8" font-family="Times,serif" font-size="14.00">(AlpsItem)</text>
</a>
</g>
</g>
<!-- AlpsItem&#45;&gt;AlpsItemEdit -->
<g id="edge1" class="edge">
<title>AlpsItem&#45;&gt;AlpsItemEdit</title>
<g id="a_edge1"><a xlink:href="docs/safe.goAlpsItemEdit.html" xlink:title="goAlpsItemEdit, edit&#45;form (safe)" target="_parent">
<path fill="none" stroke="black" d="M643.8,-351.78C508.53,-337.18 87.3,-284.04 7.66,-181 -63.28,-89.2 402.44,-40.3 563.37,-26.29"/>
<polygon fill="black" stroke="black" points="563.86,-29.76 573.52,-25.41 563.26,-22.78 563.86,-29.76"/>
</a>
</g>
<g id="a_edge1&#45;label"><a xlink:href="docs/safe.goAlpsItemEdit.html" xlink:title="goAlpsItemEdit, edit&#45;form (safe)" target="_parent">
<text text-anchor="middle" x="95.66" y="-170.6" font-family="Times,serif" font-size="13.00">goAlpsItemEdit, edit&#45;form (safe)</text>
</a>
</g>
</g>
<!-- Index -->
<g id="node3" class="node">
<title>Index</title>
<g id="a_node3"><a xlink:href="docs/semantic.Index.html" xlink:title="&lt;TABLE&gt;" target="_parent">
<polygon fill="lightgray" stroke="black" stroke-width="2" points="436.66,-241 368.66,-241 368.66,-199 436.66,-199 436.66,-241"/>
<text text-anchor="start" x="387.16" y="-223.8" font-family="Times,serif" font-size="14.00">Index</text>
<text text-anchor="start" x="374.66" y="-208.8" font-family="Times,serif" font-size="14.00">(AlpsList)</text>
</a>
</g>
</g>
<!-- AlpsItem&#45;&gt;Index -->
<g id="edge2" class="edge">
<title>AlpsItem&#45;&gt;Index</title>
<g id="a_edge2"><a xlink:href="docs/safe.goIndex.html" xlink:title="goIndex, collection (safe)" target="_parent">
<path fill="none" stroke="black" d="M644.09,-351.39C565.82,-341.75 401.41,-316.69 367.66,-273 361.78,-265.38 364.14,-256.81 369.76,-248.86"/>
<polygon fill="black" stroke="black" points="372.48,-251.07 376.27,-241.18 367.14,-246.55 372.48,-251.07"/>
</a>
</g>
<g id="a_edge2&#45;label"><a xlink:href="docs/safe.goIndex.html" xlink:title="goIndex, collection (safe)" target="_parent">
<text text-anchor="middle" x="436.66" y="-262.6" font-family="Times,serif" font-size="13.00">goIndex, collection (safe)</text>
</a>
</g>
</g>
<!-- MyAlps -->
<g id="node4" class="node">
<title>MyAlps</title>
<g id="a_node4"><a xlink:href="docs/semantic.MyAlps.html" xlink:title="&lt;TABLE&gt;" target="_parent">
<polygon fill="lightgray" stroke="black" stroke-width="2" points="650.66,-149 582.66,-149 582.66,-92 650.66,-92 650.66,-149"/>
<text text-anchor="start" x="593.66" y="-131.3" font-family="Times,serif" font-size="14.00">MyAlps</text>
<text text-anchor="start" x="588.66" y="-116.3" font-family="Times,serif" font-size="14.00">(AlpsList)</text>
<text text-anchor="start" x="599.16" y="-101.3" font-family="Times,serif" font-size="14.00">(User)</text>
</a>
</g>
</g>
<!-- AlpsItem&#45;&gt;MyAlps -->
<g id="edge3" class="edge">
<title>AlpsItem&#45;&gt;MyAlps</title>
<path fill="none" stroke="black" d="M727.29,-355.55C799.07,-352.7 936.32,-337.14 912.66,-259 881.69,-156.7 735.66,-130.51 660.94,-123.8"/>
<polygon fill="black" stroke="black" points="661.14,-120.31 650.89,-122.98 660.57,-127.28 661.14,-120.31"/>
<g id="a_edge3_0"><a xlink:href="docs/idempotent.doDelete.html" xlink:title="&lt;TABLE&gt;">
<text text-anchor="start" x="908.16" y="-226.6" font-family="Times,serif" font-size="13.00">doDelete (idempotent)</text>
</a>
</g>
<g id="a_edge3_1"><a xlink:href="docs/safe.goMyAlps.html" xlink:title="&lt;TABLE&gt;">
<text text-anchor="start" x="908.16" y="-206.6" font-family="Times,serif" font-size="13.00">goMyAlps (safe)</text>
</a>
</g>
</g>
<!-- User -->
<g id="node5" class="node">
<title>User</title>
<g id="a_node5"><a xlink:href="docs/semantic.User.html" xlink:title="&lt;TABLE&gt;" target="_parent">
<polygon fill="lightgray" stroke="black" stroke-width="2" points="863.66,-241 809.66,-241 809.66,-199 863.66,-199 863.66,-241"/>
<text text-anchor="start" x="823.66" y="-223.8" font-family="Times,serif" font-size="14.00">User</text>
<text text-anchor="start" x="826.66" y="-208.8" font-family="Times,serif" font-size="14.00">(id)</text>
</a>
</g>
</g>
<!-- AlpsItem&#45;&gt;User -->
<g id="edge4" class="edge">
<title>AlpsItem&#45;&gt;User</title>
<g id="a_edge4"><a xlink:href="docs/safe.goUser.html" xlink:title="goUser (safe)" target="_parent">
<path fill="none" stroke="black" d="M727.34,-343.78C761.05,-331.58 806.71,-309.32 830.66,-273 834.86,-266.64 836.95,-258.86 837.86,-251.28"/>
<polygon fill="black" stroke="black" points="841.36,-251.41 838.47,-241.22 834.38,-250.99 841.36,-251.41"/>
</a>
</g>
<g id="a_edge4&#45;label"><a xlink:href="docs/safe.goUser.html" xlink:title="goUser (safe)" target="_parent">
<text text-anchor="middle" x="872.16" y="-262.6" font-family="Times,serif" font-size="13.00">goUser (safe)</text>
</a>
</g>
</g>
<!-- AlpsItemEdit&#45;&gt;AlpsItem -->
<g id="edge5" class="edge">
<title>AlpsItemEdit&#45;&gt;AlpsItem</title>
<g id="a_edge5"><a xlink:href="docs/idempotent.doEdit.html" xlink:title="doEdit, edit (idempotent)" target="_parent">
<path fill="none" stroke="black" d="M659.87,-24.27C750.49,-31.69 958.52,-63.44 1036.66,-199 1103.5,-314.95 850.36,-345.58 737.44,-353.41"/>
<polygon fill="black" stroke="black" points="737.04,-349.93 727.29,-354.08 737.5,-356.92 737.04,-349.93"/>
</a>
</g>
<g id="a_edge5&#45;label"><a xlink:href="docs/idempotent.doEdit.html" xlink:title="doEdit, edit (idempotent)" target="_parent">
<text text-anchor="middle" x="1091.16" y="-170.6" font-family="Times,serif" font-size="13.00">doEdit, edit (idempotent)</text>
</a>
</g>
</g>
<!-- Index&#45;&gt;AlpsItem -->
<g id="edge6" class="edge">
<title>Index&#45;&gt;AlpsItem</title>
<g id="a_edge6"><a xlink:href="docs/safe.goAlpsItem.html" xlink:title="goAlpsItem, item (safe)" target="_parent">
<path fill="none" stroke="black" d="M436.74,-231.72C457.14,-238.59 483.35,-248.22 505.66,-259 516.44,-264.21 518.26,-267.09 528.66,-273 563.65,-292.87 603.76,-314.05 634.69,-330.04"/>
<polygon fill="black" stroke="black" points="633.48,-333.36 643.97,-334.83 636.69,-327.14 633.48,-333.36"/>
</a>
</g>
<g id="a_edge6&#45;label"><a xlink:href="docs/safe.goAlpsItem.html" xlink:title="goAlpsItem, item (safe)" target="_parent">
<text text-anchor="middle" x="592.16" y="-262.6" font-family="Times,serif" font-size="13.00">goAlpsItem, item (safe)</text>
</a>
</g>
</g>
<!-- Index&#45;&gt;MyAlps -->
<g id="edge7" class="edge">
<title>Index&#45;&gt;MyAlps</title>
<g id="a_edge7"><a xlink:href="docs/safe.goMyAlps.html" xlink:title="goMyAlps (safe)" target="_parent">
<path fill="none" stroke="black" d="M436.91,-213.62C465.94,-208.15 508.07,-198.01 541.66,-181 555.04,-174.23 568.3,-164.84 579.86,-155.53"/>
<polygon fill="black" stroke="black" points="582.12,-158.2 587.58,-149.12 577.65,-152.81 582.12,-158.2"/>
</a>
</g>
<g id="a_edge7&#45;label"><a xlink:href="docs/safe.goMyAlps.html" xlink:title="goMyAlps (safe)" target="_parent">
<text text-anchor="middle" x="609.16" y="-170.6" font-family="Times,serif" font-size="13.00">goMyAlps (safe)</text>
</a>
</g>
</g>
<!-- StateDiagram -->
<g id="node6" class="node">
<title>StateDiagram</title>
<g id="a_node6"><a xlink:href="docs/semantic.StateDiagram.html" xlink:title="StateDiagram" target="_parent">
<polygon fill="lightgray" stroke="black" stroke-width="2" points="230.66,-138.5 138.66,-138.5 138.66,-102.5 230.66,-102.5 230.66,-138.5"/>
<text text-anchor="middle" x="184.66" y="-116.8" font-family="Times,serif" font-size="14.00">StateDiagram</text>
</a>
</g>
</g>
<!-- Index&#45;&gt;StateDiagram -->
<g id="edge8" class="edge">
<title>Index&#45;&gt;StateDiagram</title>
<g id="a_edge8"><a xlink:href="docs/idempotent.doCreateStateDiagram.html" xlink:title="doCreateStateDiagram (idempotent)" target="_parent">
<path fill="none" stroke="black" d="M368.4,-217.31C315.98,-213.99 219.45,-204.75 195.66,-181 187.3,-172.65 184.16,-160.14 183.27,-148.74"/>
<polygon fill="black" stroke="black" points="186.77,-148.64 183.01,-138.74 179.78,-148.83 186.77,-148.64"/>
</a>
</g>
<g id="a_edge8&#45;label"><a xlink:href="docs/idempotent.doCreateStateDiagram.html" xlink:title="doCreateStateDiagram (idempotent)" target="_parent">
<text text-anchor="middle" x="293.16" y="-170.6" font-family="Times,serif" font-size="13.00">doCreateStateDiagram (idempotent)</text>
</a>
</g>
</g>
<!-- MyAlps&#45;&gt;AlpsItem -->
<g id="edge9" class="edge">
<title>MyAlps&#45;&gt;AlpsItem</title>
<path fill="none" stroke="black" d="M644.46,-149.19C648.79,-154.72 652.78,-160.77 655.66,-167 671.97,-202.27 679.64,-244.76 683.16,-280.51"/>
<polygon fill="black" stroke="black" points="679.71,-281.24 684.08,-290.89 686.68,-280.62 679.71,-281.24"/>
<g id="a_edge9_2"><a xlink:href="docs/unsafe.doCreate.html" xlink:title="&lt;TABLE&gt;">
<text text-anchor="start" x="681.16" y="-226.6" font-family="Times,serif" font-size="13.00">doCreate (unsafe)</text>
</a>
</g>
<g id="a_edge9_3"><a xlink:href="docs/safe.goAlpsItem.html" xlink:title="&lt;TABLE&gt;">
<text text-anchor="start" x="681.16" y="-206.6" font-family="Times,serif" font-size="13.00">goAlpsItem (safe)</text>
</a>
</g>
</g>
<!-- MyAlps&#45;&gt;AlpsItemEdit -->
<g id="edge10" class="edge">
<title>MyAlps&#45;&gt;AlpsItemEdit</title>
<g id="a_edge10"><a xlink:href="docs/safe.goAlpsItemEdit.html" xlink:title="goAlpsItemEdit, edit&#45;form (safe)" target="_parent">
<path fill="none" stroke="black" d="M616.66,-91.82C616.66,-79.51 616.66,-64.97 616.66,-52.36"/>
<polygon fill="black" stroke="black" points="620.16,-52.31 616.66,-42.31 613.16,-52.31 620.16,-52.31"/>
</a>
</g>
<g id="a_edge10&#45;label"><a xlink:href="docs/safe.goAlpsItemEdit.html" xlink:title="goAlpsItemEdit, edit&#45;form (safe)" target="_parent">
<text text-anchor="middle" x="704.66" y="-63.6" font-family="Times,serif" font-size="13.00">goAlpsItemEdit, edit&#45;form (safe)</text>
</a>
</g>
</g>
<!-- MyAlps&#45;&gt;Index -->
<g id="edge11" class="edge">
<title>MyAlps&#45;&gt;Index</title>
<g id="a_edge11"><a xlink:href="docs/safe.goIndex.html" xlink:title="goIndex, collection (safe)" target="_parent">
<path fill="none" stroke="black" d="M582.37,-123.58C527.12,-127.72 422.29,-139.14 399.66,-167 394.71,-173.1 393.47,-181.05 393.98,-188.9"/>
<polygon fill="black" stroke="black" points="390.55,-189.62 395.51,-198.98 397.47,-188.57 390.55,-189.62"/>
</a>
</g>
<g id="a_edge11&#45;label"><a xlink:href="docs/safe.goIndex.html" xlink:title="goIndex, collection (safe)" target="_parent">
<text text-anchor="middle" x="468.66" y="-170.6" font-family="Times,serif" font-size="13.00">goIndex, collection (safe)</text>
</a>
</g>
</g>
<!-- User&#45;&gt;AlpsItem -->
<g id="edge12" class="edge">
<title>User&#45;&gt;AlpsItem</title>
<g id="a_edge12"><a xlink:href="docs/safe.goAlpsItem.html" xlink:title="goAlpsItem, item (safe)" target="_parent">
<path fill="none" stroke="black" d="M809.42,-231.07C799.78,-234.46 788.8,-238.11 778.66,-241 744.04,-250.88 724.08,-232.53 699.66,-259 693.82,-265.34 689.74,-272.97 686.95,-281.13"/>
<polygon fill="black" stroke="black" points="683.54,-280.34 684.25,-290.91 690.29,-282.2 683.54,-280.34"/>
</a>
</g>
<g id="a_edge12&#45;label"><a xlink:href="docs/safe.goAlpsItem.html" xlink:title="goAlpsItem, item (safe)" target="_parent">
<text text-anchor="middle" x="763.16" y="-262.6" font-family="Times,serif" font-size="13.00">goAlpsItem, item (safe)</text>
</a>
</g>
</g>
</g>
</svg>
