<?xml version="1.0" encoding="UTF-8" standalone="no"?>
<!DOCTYPE svg PUBLIC "-//W3C//DTD SVG 1.1//EN"
 "http://www.w3.org/Graphics/SVG/1.1/DTD/svg11.dtd">
<!-- Generated by graphviz version 2.47.1 (20210417.1919)
 -->
<!-- Title: application_state_diagram Pages: 1 -->
<svg width="1356pt" height="424pt"
 viewBox="0.00 0.00 1355.66 424.00" xmlns="http://www.w3.org/2000/svg" xmlns:xlink="http://www.w3.org/1999/xlink">
<g id="graph0" class="graph" transform="scale(1 1) rotate(0) translate(4 420)">
<title>application_state_diagram</title>
<g id="a_graph0"><a xlink:href="index.html" xlink:title="MaAlps" target="_parent">
<polygon fill="white" stroke="transparent" points="-4,4 -4,-420 1351.66,-420 1351.66,4 -4,4"/>
<text text-anchor="middle" x="673.83" y="-400.8" font-family="Helvetica,sans-Serif" font-size="14.00">MaAlps</text>
</a>
</g>
<!-- AlpsItem -->
<g id="node1" class="node">
<title>AlpsItem</title>
<g id="a_node1"><a xlink:href="docs/semantic.AlpsItem.html" xlink:title="&lt;TABLE&gt;" target="_parent">
<polygon fill="lightgray" stroke="black" stroke-width="2" points="819.16,-393 736.16,-393 736.16,-291 819.16,-291 819.16,-393"/>
<text text-anchor="start" x="752.16" y="-375.8" font-family="Times,serif" font-size="14.00">AlpsItem</text>
<text text-anchor="start" x="768.16" y="-360.8" font-family="Times,serif" font-size="14.00">(id)</text>
<text text-anchor="start" x="751.66" y="-345.8" font-family="Times,serif" font-size="14.00">(isPublic)</text>
<text text-anchor="start" x="762.66" y="-330.8" font-family="Times,serif" font-size="14.00">(title)</text>
<text text-anchor="start" x="760.66" y="-315.8" font-family="Times,serif" font-size="14.00">(User)</text>
<text text-anchor="start" x="742.66" y="-300.8" font-family="Times,serif" font-size="14.00">(mediaType)</text>
</a>
</g>
</g>
<!-- AlpsItemEdit -->
<g id="node2" class="node">
<title>AlpsItemEdit</title>
<g id="a_node2"><a xlink:href="docs/semantic.AlpsItemEdit.html" xlink:title="&lt;TABLE&gt;" target="_parent">
<polygon fill="lightgray" stroke="black" stroke-width="2" points="659.66,-42 573.66,-42 573.66,0 659.66,0 659.66,-42"/>
<text text-anchor="start" x="579.66" y="-24.8" font-family="Times,serif" font-size="14.00">AlpsItemEdit</text>
<text text-anchor="start" x="586.16" y="-9.8" font-family="Times,serif" font-size="14.00">(AlpsItem)</text>
</a>
</g>
</g>
<!-- AlpsItem&#45;&gt;AlpsItemEdit -->
<g id="edge1" class="edge">
<title>AlpsItem&#45;&gt;AlpsItemEdit</title>
<g id="a_edge1"><a xlink:href="docs/safe.goAlpsItemEdit.html" xlink:title="goAlpsItemEdit, edit&#45;form (safe)" target="_parent">
<path fill="none" stroke="black" d="M736.06,-339.17C589.09,-331.72 98.3,-298.29 7.66,-181 -63.28,-89.2 402.44,-40.3 563.37,-26.29"/>
<polygon fill="black" stroke="black" points="563.86,-29.76 573.52,-25.41 563.26,-22.78 563.86,-29.76"/>
</a>
</g>
<g id="a_edge1&#45;label"><a xlink:href="docs/safe.goAlpsItemEdit.html" xlink:title="goAlpsItemEdit, edit&#45;form (safe)" target="_parent">
<text text-anchor="middle" x="95.66" y="-170.6" font-family="Times,serif" font-size="13.00">goAlpsItemEdit, edit&#45;form (safe)</text>
</a>
</g>
</g>
<!-- Index -->
<g id="node3" class="node">
<title>Index</title>
<g id="a_node3"><a xlink:href="docs/semantic.Index.html" xlink:title="&lt;TABLE&gt;" target="_parent">
<polygon fill="lightgray" stroke="black" stroke-width="2" points="436.66,-241 368.66,-241 368.66,-199 436.66,-199 436.66,-241"/>
<text text-anchor="start" x="387.16" y="-223.8" font-family="Times,serif" font-size="14.00">Index</text>
<text text-anchor="start" x="374.66" y="-208.8" font-family="Times,serif" font-size="14.00">(AlpsList)</text>
</a>
</g>
</g>
<!-- AlpsItem&#45;&gt;Index -->
<g id="edge3" class="edge">
<title>AlpsItem&#45;&gt;Index</title>
<g id="a_edge3"><a xlink:href="docs/safe.goIndex.html" xlink:title="goIndex, collection (safe)" target="_parent">
<path fill="none" stroke="black" d="M735.87,-340.6C641.13,-338.71 414.62,-328.38 367.66,-273 361.26,-265.45 363.83,-256.7 369.79,-248.56"/>
<polygon fill="black" stroke="black" points="372.45,-250.84 376.38,-241 367.17,-246.25 372.45,-250.84"/>
</a>
</g>
<g id="a_edge3&#45;label"><a xlink:href="docs/safe.goIndex.html" xlink:title="goIndex, collection (safe)" target="_parent">
<text text-anchor="middle" x="436.66" y="-262.6" font-family="Times,serif" font-size="13.00">goIndex, collection (safe)</text>
</a>
</g>
</g>
<!-- MyAlps -->
<g id="node4" class="node">
<title>MyAlps</title>
<g id="a_node4"><a xlink:href="docs/semantic.MyAlps.html" xlink:title="&lt;TABLE&gt;" target="_parent">
<polygon fill="lightgray" stroke="black" stroke-width="2" points="650.66,-149 582.66,-149 582.66,-92 650.66,-92 650.66,-149"/>
<text text-anchor="start" x="593.66" y="-131.3" font-family="Times,serif" font-size="14.00">MyAlps</text>
<text text-anchor="start" x="588.66" y="-116.3" font-family="Times,serif" font-size="14.00">(AlpsList)</text>
<text text-anchor="start" x="599.16" y="-101.3" font-family="Times,serif" font-size="14.00">(User)</text>
</a>
</g>
</g>
<!-- AlpsItem&#45;&gt;MyAlps -->
<g id="edge4" class="edge">
<title>AlpsItem&#45;&gt;MyAlps</title>
<path fill="none" stroke="black" d="M819.47,-338.54C898.64,-332.92 1065.69,-316.11 1100.66,-273 1104.58,-268.17 1101.8,-265.12 1100.66,-259 1095.47,-230.92 1099.77,-217.08 1077.66,-199 1014.2,-147.08 763.72,-128.84 660.99,-123.46"/>
<polygon fill="black" stroke="black" points="661.1,-119.96 650.94,-122.95 660.75,-126.95 661.1,-119.96"/>
<g id="a_edge4_0"><a xlink:href="docs/idempotent.doDelete.html" xlink:title="&lt;TABLE&gt;">
<text text-anchor="start" x="1102.16" y="-226.6" font-family="Times,serif" font-size="13.00">doDelete (idempotent)</text>
</a>
</g>
<g id="a_edge4_1"><a xlink:href="docs/safe.goMyAlps.html" xlink:title="&lt;TABLE&gt;">
<text text-anchor="start" x="1102.16" y="-206.6" font-family="Times,serif" font-size="13.00">goMyAlps (safe)</text>
</a>
</g>
</g>
<!-- User -->
<g id="node5" class="node">
<title>User</title>
<g id="a_node5"><a xlink:href="docs/semantic.User.html" xlink:title="&lt;TABLE&gt;" target="_parent">
<polygon fill="lightgray" stroke="black" stroke-width="2" points="862.66,-241 808.66,-241 808.66,-199 862.66,-199 862.66,-241"/>
<text text-anchor="start" x="822.66" y="-223.8" font-family="Times,serif" font-size="14.00">User</text>
<text text-anchor="start" x="825.66" y="-208.8" font-family="Times,serif" font-size="14.00">(id)</text>
</a>
</g>
</g>
<!-- AlpsItem&#45;&gt;User -->
<g id="edge6" class="edge">
<title>AlpsItem&#45;&gt;User</title>
<g id="a_edge6"><a xlink:href="docs/safe.goUser.html" xlink:title="goUser (safe)" target="_parent">
<path fill="none" stroke="black" d="M819.25,-294.44C823.74,-287.6 827.73,-280.37 830.66,-273 833.38,-266.18 834.88,-258.49 835.66,-251.14"/>
<polygon fill="black" stroke="black" points="839.15,-251.34 836.33,-241.12 832.17,-250.86 839.15,-251.34"/>
</a>
</g>
<g id="a_edge6&#45;label"><a xlink:href="docs/safe.goUser.html" xlink:title="goUser (safe)" target="_parent">
<text text-anchor="middle" x="870.16" y="-262.6" font-family="Times,serif" font-size="13.00">goUser (safe)</text>
</a>
</g>
</g>
<!-- Asd -->
<g id="node6" class="node">
<title>Asd</title>
<g id="a_node6"><a xlink:href="docs/semantic.Asd.html" xlink:title="Asd" target="_parent">
<polygon fill="lightgray" stroke="black" stroke-width="2" points="975.66,-238 921.66,-238 921.66,-202 975.66,-202 975.66,-238"/>
<text text-anchor="middle" x="948.66" y="-216.3" font-family="Times,serif" font-size="14.00">Asd</text>
</a>
</g>
</g>
<!-- AlpsItem&#45;&gt;Asd -->
<g id="edge2" class="edge">
<title>AlpsItem&#45;&gt;Asd</title>
<g id="a_edge2"><a xlink:href="docs/safe.goAsd.html" xlink:title="goAsd (safe)" target="_parent">
<path fill="none" stroke="black" d="M819.33,-325.65C847.18,-314.04 883.53,-296.14 910.66,-273 919.43,-265.52 927.3,-255.64 933.57,-246.5"/>
<polygon fill="black" stroke="black" points="936.54,-248.35 939.07,-238.06 930.68,-244.53 936.54,-248.35"/>
</a>
</g>
<g id="a_edge2&#45;label"><a xlink:href="docs/safe.goAsd.html" xlink:title="goAsd (safe)" target="_parent">
<text text-anchor="middle" x="958.66" y="-262.6" font-family="Times,serif" font-size="13.00">goAsd (safe)</text>
</a>
</g>
</g>
<!-- Profile -->
<g id="node7" class="node">
<title>Profile</title>
<g id="a_node7"><a xlink:href="docs/semantic.Profile.html" xlink:title="Profile" target="_parent">
<polygon fill="lightgray" stroke="black" stroke-width="2" points="1068.66,-238 1014.66,-238 1014.66,-202 1068.66,-202 1068.66,-238"/>
<text text-anchor="middle" x="1041.66" y="-216.3" font-family="Times,serif" font-size="14.00">Profile</text>
</a>
</g>
</g>
<!-- AlpsItem&#45;&gt;Profile -->
<g id="edge5" class="edge">
<title>AlpsItem&#45;&gt;Profile</title>
<g id="a_edge5"><a xlink:href="docs/safe.goProfile.html" xlink:title="goProfile (safe)" target="_parent">
<path fill="none" stroke="black" d="M819.17,-335.34C865.78,-327.43 942.14,-309.71 997.66,-273 1008.19,-266.04 1017.59,-255.84 1024.97,-246.32"/>
<polygon fill="black" stroke="black" points="1027.82,-248.36 1030.91,-238.22 1022.18,-244.21 1027.82,-248.36"/>
</a>
</g>
<g id="a_edge5&#45;label"><a xlink:href="docs/safe.goProfile.html" xlink:title="goProfile (safe)" target="_parent">
<text text-anchor="middle" x="1054.66" y="-262.6" font-family="Times,serif" font-size="13.00">goProfile (safe)</text>
</a>
</g>
</g>
<!-- AlpsItemEdit&#45;&gt;AlpsItem -->
<g id="edge7" class="edge">
<title>AlpsItemEdit&#45;&gt;AlpsItem</title>
<g id="a_edge7"><a xlink:href="docs/idempotent.doEdit.html" xlink:title="doEdit, edit (idempotent)" target="_parent">
<path fill="none" stroke="black" d="M660.06,-27.66C788.41,-45.38 1161.59,-104.35 1230.66,-199 1241.67,-214.08 1241.96,-226.14 1230.66,-241 1182.4,-304.52 937.55,-329.62 829.28,-337.72"/>
<polygon fill="black" stroke="black" points="828.96,-334.23 819.24,-338.45 829.47,-341.21 828.96,-334.23"/>
</a>
</g>
<g id="a_edge7&#45;label"><a xlink:href="docs/idempotent.doEdit.html" xlink:title="doEdit, edit (idempotent)" target="_parent">
<text text-anchor="middle" x="1280.16" y="-170.6" font-family="Times,serif" font-size="13.00">doEdit, edit (idempotent)</text>
</a>
</g>
</g>
<!-- Index&#45;&gt;AlpsItem -->
<g id="edge8" class="edge">
<title>Index&#45;&gt;AlpsItem</title>
<g id="a_edge8"><a xlink:href="docs/safe.goAlpsItem.html" xlink:title="goAlpsItem, item (safe)" target="_parent">
<path fill="none" stroke="black" d="M436.74,-231.72C457.14,-238.59 483.35,-248.22 505.66,-259 516.44,-264.21 517.67,-268.27 528.66,-273 594.26,-301.25 674.69,-320.68 726.06,-331.32"/>
<polygon fill="black" stroke="black" points="725.43,-334.77 735.93,-333.34 726.83,-327.91 725.43,-334.77"/>
</a>
</g>
<g id="a_edge8&#45;label"><a xlink:href="docs/safe.goAlpsItem.html" xlink:title="goAlpsItem, item (safe)" target="_parent">
<text text-anchor="middle" x="592.16" y="-262.6" font-family="Times,serif" font-size="13.00">goAlpsItem, item (safe)</text>
</a>
</g>
</g>
<!-- Index&#45;&gt;MyAlps -->
<g id="edge9" class="edge">
<title>Index&#45;&gt;MyAlps</title>
<g id="a_edge9"><a xlink:href="docs/safe.goMyAlps.html" xlink:title="goMyAlps (safe)" target="_parent">
<path fill="none" stroke="black" d="M436.91,-213.62C465.94,-208.15 508.07,-198.01 541.66,-181 555.04,-174.23 568.3,-164.84 579.86,-155.53"/>
<polygon fill="black" stroke="black" points="582.12,-158.2 587.58,-149.12 577.65,-152.81 582.12,-158.2"/>
</a>
</g>
<g id="a_edge9&#45;label"><a xlink:href="docs/safe.goMyAlps.html" xlink:title="goMyAlps (safe)" target="_parent">
<text text-anchor="middle" x="610.16" y="-170.6" font-family="Times,serif" font-size="13.00">goMyAlps (safe)</text>
</a>
</g>
</g>
<!-- StateDiagram -->
<g id="node8" class="node">
<title>StateDiagram</title>
<g id="a_node8"><a xlink:href="docs/semantic.StateDiagram.html" xlink:title="StateDiagram" target="_parent">
<polygon fill="lightgray" stroke="black" stroke-width="2" points="230.66,-138.5 138.66,-138.5 138.66,-102.5 230.66,-102.5 230.66,-138.5"/>
<text text-anchor="middle" x="184.66" y="-116.8" font-family="Times,serif" font-size="14.00">StateDiagram</text>
</a>
</g>
</g>
<!-- Index&#45;&gt;StateDiagram -->
<g id="edge10" class="edge">
<title>Index&#45;&gt;StateDiagram</title>
<g id="a_edge10"><a xlink:href="docs/idempotent.doCreateStateDiagram.html" xlink:title="doCreateStateDiagram (idempotent)" target="_parent">
<path fill="none" stroke="black" d="M368.4,-217.31C315.98,-213.99 219.45,-204.75 195.66,-181 187.3,-172.65 184.16,-160.14 183.27,-148.74"/>
<polygon fill="black" stroke="black" points="186.77,-148.64 183.01,-138.74 179.78,-148.83 186.77,-148.64"/>
</a>
</g>
<g id="a_edge10&#45;label"><a xlink:href="docs/idempotent.doCreateStateDiagram.html" xlink:title="doCreateStateDiagram (idempotent)" target="_parent">
<text text-anchor="middle" x="293.16" y="-170.6" font-family="Times,serif" font-size="13.00">doCreateStateDiagram (idempotent)</text>
</a>
</g>
</g>
<!-- MyAlps&#45;&gt;AlpsItem -->
<g id="edge11" class="edge">
<title>MyAlps&#45;&gt;AlpsItem</title>
<path fill="none" stroke="black" d="M643.29,-149.08C647.84,-154.72 652.21,-160.82 655.66,-167 679.8,-210.19 661.25,-232.49 689.66,-273 699.77,-287.4 713.83,-300.17 727.74,-310.64"/>
<polygon fill="black" stroke="black" points="725.74,-313.5 735.89,-316.53 729.84,-307.83 725.74,-313.5"/>
<g id="a_edge11_2"><a xlink:href="docs/unsafe.doCreate.html" xlink:title="&lt;TABLE&gt;">
<text text-anchor="start" x="678.16" y="-226.6" font-family="Times,serif" font-size="13.00">doCreate (unsafe)</text>
</a>
</g>
<g id="a_edge11_3"><a xlink:href="docs/safe.goAlpsItem.html" xlink:title="&lt;TABLE&gt;">
<text text-anchor="start" x="678.16" y="-206.6" font-family="Times,serif" font-size="13.00">goAlpsItem (safe)</text>
</a>
</g>
</g>
<!-- MyAlps&#45;&gt;AlpsItemEdit -->
<g id="edge12" class="edge">
<title>MyAlps&#45;&gt;AlpsItemEdit</title>
<g id="a_edge12"><a xlink:href="docs/safe.goAlpsItemEdit.html" xlink:title="goAlpsItemEdit, edit&#45;form (safe)" target="_parent">
<path fill="none" stroke="black" d="M616.66,-91.82C616.66,-79.51 616.66,-64.97 616.66,-52.36"/>
<polygon fill="black" stroke="black" points="620.16,-52.31 616.66,-42.31 613.16,-52.31 620.16,-52.31"/>
</a>
</g>
<g id="a_edge12&#45;label"><a xlink:href="docs/safe.goAlpsItemEdit.html" xlink:title="goAlpsItemEdit, edit&#45;form (safe)" target="_parent">
<text text-anchor="middle" x="704.66" y="-63.6" font-family="Times,serif" font-size="13.00">goAlpsItemEdit, edit&#45;form (safe)</text>
</a>
</g>
</g>
<!-- MyAlps&#45;&gt;Index -->
<g id="edge13" class="edge">
<title>MyAlps&#45;&gt;Index</title>
<g id="a_edge13"><a xlink:href="docs/safe.goIndex.html" xlink:title="goIndex, collection (safe)" target="_parent">
<path fill="none" stroke="black" d="M582.37,-123.58C527.12,-127.72 422.29,-139.14 399.66,-167 394.71,-173.1 393.47,-181.05 393.98,-188.9"/>
<polygon fill="black" stroke="black" points="390.55,-189.62 395.51,-198.98 397.47,-188.57 390.55,-189.62"/>
</a>
</g>
<g id="a_edge13&#45;label"><a xlink:href="docs/safe.goIndex.html" xlink:title="goIndex, collection (safe)" target="_parent">
<text text-anchor="middle" x="468.66" y="-170.6" font-family="Times,serif" font-size="13.00">goIndex, collection (safe)</text>
</a>
</g>
</g>
<!-- User&#45;&gt;AlpsItem -->
<g id="edge14" class="edge">
<title>User&#45;&gt;AlpsItem</title>
<g id="a_edge14"><a xlink:href="docs/safe.goAlpsItem.html" xlink:title="goAlpsItem, item (safe)" target="_parent">
<path fill="none" stroke="black" d="M808.61,-231.2C799.21,-234.55 788.54,-238.15 778.66,-241 744.06,-250.98 722.12,-230.85 699.66,-259 683.83,-278.85 703.87,-299.56 727.59,-315.2"/>
<polygon fill="black" stroke="black" points="725.75,-318.18 736.09,-320.51 729.46,-312.24 725.75,-318.18"/>
</a>
</g>
<g id="a_edge14&#45;label"><a xlink:href="docs/safe.goAlpsItem.html" xlink:title="goAlpsItem, item (safe)" target="_parent">
<text text-anchor="middle" x="763.16" y="-262.6" font-family="Times,serif" font-size="13.00">goAlpsItem, item (safe)</text>
</a>
</g>
</g>
</g>
</svg>
