<?xml version="1.0" encoding="UTF-8" standalone="no"?>
<!DOCTYPE svg PUBLIC "-//W3C//DTD SVG 1.1//EN"
 "http://www.w3.org/Graphics/SVG/1.1/DTD/svg11.dtd">
<!-- Generated by graphviz version 2.47.1 (20210417.1919)
 -->
<!-- Title: application_state_diagram Pages: 1 -->
<svg width="1228pt" height="424pt"
 viewBox="0.00 0.00 1227.57 424.00" xmlns="http://www.w3.org/2000/svg" xmlns:xlink="http://www.w3.org/1999/xlink">
<g id="graph0" class="graph" transform="scale(1 1) rotate(0) translate(4 420)">
<title>application_state_diagram</title>
<g id="a_graph0"><a xlink:href="index.html" xlink:title="MaAlps" target="_parent">
<polygon fill="white" stroke="transparent" points="-4,4 -4,-420 1223.57,-420 1223.57,4 -4,4"/>
<text text-anchor="middle" x="609.79" y="-400.8" font-family="Helvetica,sans-Serif" font-size="14.00">MaAlps</text>
</a>
</g>
<!-- AlpsItem -->
<g id="node1" class="node">
<title>AlpsItem</title>
<g id="a_node1"><a xlink:href="docs/semantic.AlpsItem.html" xlink:title="&lt;TABLE&gt;" target="_parent">
<polygon fill="lightgray" stroke="black" stroke-width="2" points="750.07,-393 667.07,-393 667.07,-291 750.07,-291 750.07,-393"/>
<text text-anchor="start" x="683.07" y="-375.8" font-family="Times,serif" font-size="14.00">AlpsItem</text>
<text text-anchor="start" x="699.07" y="-360.8" font-family="Times,serif" font-size="14.00">(id)</text>
<text text-anchor="start" x="682.57" y="-345.8" font-family="Times,serif" font-size="14.00">(isPublic)</text>
<text text-anchor="start" x="693.57" y="-330.8" font-family="Times,serif" font-size="14.00">(title)</text>
<text text-anchor="start" x="693.07" y="-315.8" font-family="Times,serif" font-size="14.00">(user)</text>
<text text-anchor="start" x="673.57" y="-300.8" font-family="Times,serif" font-size="14.00">(mediaType)</text>
</a>
</g>
</g>
<!-- AlpsItemEdit -->
<g id="node2" class="node">
<title>AlpsItemEdit</title>
<g id="a_node2"><a xlink:href="docs/semantic.AlpsItemEdit.html" xlink:title="&lt;TABLE&gt;" target="_parent">
<polygon fill="lightgray" stroke="black" stroke-width="2" points="655.57,-42 569.57,-42 569.57,0 655.57,0 655.57,-42"/>
<text text-anchor="start" x="575.57" y="-24.8" font-family="Times,serif" font-size="14.00">AlpsItemEdit</text>
<text text-anchor="start" x="582.07" y="-9.8" font-family="Times,serif" font-size="14.00">(AlpsItem)</text>
</a>
</g>
</g>
<!-- AlpsItem&#45;&gt;AlpsItemEdit -->
<g id="edge1" class="edge">
<title>AlpsItem&#45;&gt;AlpsItemEdit</title>
<g id="a_edge1"><a xlink:href="docs/safe.goAlpsItemEdit.html" xlink:title="goAlpsItemEdit, edit&#45;form (safe)" target="_parent">
<path fill="none" stroke="black" d="M666.68,-338.19C528.21,-327.93 89.37,-287.38 7.57,-181 -62.67,-89.65 399.29,-40.49 559.37,-26.35"/>
<polygon fill="black" stroke="black" points="559.81,-29.82 569.47,-25.46 559.2,-22.85 559.81,-29.82"/>
</a>
</g>
<g id="a_edge1&#45;label"><a xlink:href="docs/safe.goAlpsItemEdit.html" xlink:title="goAlpsItemEdit, edit&#45;form (safe)" target="_parent">
<text text-anchor="middle" x="95.57" y="-170.6" font-family="Times,serif" font-size="13.00">goAlpsItemEdit, edit&#45;form (safe)</text>
</a>
</g>
</g>
<!-- Index -->
<g id="node3" class="node">
<title>Index</title>
<g id="a_node3"><a xlink:href="docs/semantic.Index.html" xlink:title="&lt;TABLE&gt;" target="_parent">
<polygon fill="lightgray" stroke="black" stroke-width="2" points="434.57,-241 370.57,-241 370.57,-199 434.57,-199 434.57,-241"/>
<text text-anchor="start" x="387.07" y="-223.8" font-family="Times,serif" font-size="14.00">Index</text>
<text text-anchor="start" x="376.57" y="-208.8" font-family="Times,serif" font-size="14.00">(alpsList)</text>
</a>
</g>
</g>
<!-- AlpsItem&#45;&gt;Index -->
<g id="edge4" class="edge">
<title>AlpsItem&#45;&gt;Index</title>
<g id="a_edge4"><a xlink:href="docs/safe.goIndex.html" xlink:title="goIndex, collection (safe)" target="_parent">
<path fill="none" stroke="black" d="M666.83,-339.24C583.01,-334.73 398.97,-319.63 360.57,-273 353.96,-264.98 357.12,-256.2 364.02,-248.18"/>
<polygon fill="black" stroke="black" points="366.57,-250.58 371.24,-241.07 361.66,-245.6 366.57,-250.58"/>
</a>
</g>
<g id="a_edge4&#45;label"><a xlink:href="docs/safe.goIndex.html" xlink:title="goIndex, collection (safe)" target="_parent">
<text text-anchor="middle" x="429.57" y="-262.6" font-family="Times,serif" font-size="13.00">goIndex, collection (safe)</text>
</a>
</g>
</g>
<!-- Profile -->
<g id="node4" class="node">
<title>Profile</title>
<g id="a_node4"><a xlink:href="docs/semantic.Profile.html" xlink:title="&lt;TABLE&gt;" target="_parent">
<polygon fill="lightgray" stroke="black" stroke-width="2" points="644.57,-149 580.57,-149 580.57,-92 644.57,-92 644.57,-149"/>
<text text-anchor="start" x="594.07" y="-131.3" font-family="Times,serif" font-size="14.00">Profile</text>
<text text-anchor="start" x="586.57" y="-116.3" font-family="Times,serif" font-size="14.00">(alpsList)</text>
<text text-anchor="start" x="596.57" y="-101.3" font-family="Times,serif" font-size="14.00">(user)</text>
</a>
</g>
</g>
<!-- AlpsItem&#45;&gt;Profile -->
<g id="edge5" class="edge">
<title>AlpsItem&#45;&gt;Profile</title>
<path fill="none" stroke="black" d="M750.24,-335.52C813.49,-326.26 929.03,-305.29 953.57,-273 965.65,-257.11 984,-241.74 944.57,-199 905.68,-156.85 735.41,-134.1 654.96,-125.54"/>
<polygon fill="black" stroke="black" points="655,-122.02 644.69,-124.47 654.27,-128.98 655,-122.02"/>
<g id="a_edge5_0"><a xlink:href="docs/idempotent.doDelete.html" xlink:title="&lt;TABLE&gt;">
<text text-anchor="start" x="972.07" y="-226.6" font-family="Times,serif" font-size="13.00">doDelete (idempotent)</text>
</a>
</g>
<g id="a_edge5_1"><a xlink:href="docs/safe.goProfile.html" xlink:title="&lt;TABLE&gt;">
<text text-anchor="start" x="972.07" y="-206.6" font-family="Times,serif" font-size="13.00">goProfile (safe)</text>
</a>
</g>
</g>
<!-- AlpsProfile -->
<g id="node5" class="node">
<title>AlpsProfile</title>
<g id="a_node5"><a xlink:href="docs/semantic.AlpsProfile.html" xlink:title="AlpsProfile" target="_parent">
<polygon fill="lightgray" stroke="black" stroke-width="2" points="863.57,-238 785.57,-238 785.57,-202 863.57,-202 863.57,-238"/>
<text text-anchor="middle" x="824.57" y="-216.3" font-family="Times,serif" font-size="14.00">AlpsProfile</text>
</a>
</g>
</g>
<!-- AlpsItem&#45;&gt;AlpsProfile -->
<g id="edge2" class="edge">
<title>AlpsItem&#45;&gt;AlpsProfile</title>
<g id="a_edge2"><a xlink:href="docs/safe.goAlpsProfile.html" xlink:title="goAlpsProfile (safe)" target="_parent">
<path fill="none" stroke="black" d="M731.65,-290.64C738.31,-279.38 746.33,-268.09 755.57,-259 761.74,-252.94 769.07,-247.55 776.62,-242.87"/>
<polygon fill="black" stroke="black" points="778.62,-245.76 785.51,-237.72 775.11,-239.7 778.62,-245.76"/>
</a>
</g>
<g id="a_edge2&#45;label"><a xlink:href="docs/safe.goAlpsProfile.html" xlink:title="goAlpsProfile (safe)" target="_parent">
<text text-anchor="middle" x="810.07" y="-262.6" font-family="Times,serif" font-size="13.00">goAlpsProfile (safe)</text>
</a>
</g>
</g>
<!-- Asd -->
<g id="node6" class="node">
<title>Asd</title>
<g id="a_node6"><a xlink:href="docs/semantic.Asd.html" xlink:title="Asd" target="_parent">
<polygon fill="lightgray" stroke="black" stroke-width="2" points="935.57,-238 881.57,-238 881.57,-202 935.57,-202 935.57,-238"/>
<text text-anchor="middle" x="908.57" y="-216.3" font-family="Times,serif" font-size="14.00">Asd</text>
</a>
</g>
</g>
<!-- AlpsItem&#45;&gt;Asd -->
<g id="edge3" class="edge">
<title>AlpsItem&#45;&gt;Asd</title>
<g id="a_edge3"><a xlink:href="docs/safe.goAsd.html" xlink:title="goAsd (safe)" target="_parent">
<path fill="none" stroke="black" d="M750.38,-328.62C783.47,-317.5 829.73,-298.93 864.57,-273 874.45,-265.65 883.57,-255.67 890.92,-246.43"/>
<polygon fill="black" stroke="black" points="893.88,-248.32 897.14,-238.24 888.3,-244.08 893.88,-248.32"/>
</a>
</g>
<g id="a_edge3&#45;label"><a xlink:href="docs/safe.goAsd.html" xlink:title="goAsd (safe)" target="_parent">
<text text-anchor="middle" x="914.57" y="-262.6" font-family="Times,serif" font-size="13.00">goAsd (safe)</text>
</a>
</g>
</g>
<!-- AlpsItemEdit&#45;&gt;AlpsItem -->
<g id="edge6" class="edge">
<title>AlpsItemEdit&#45;&gt;AlpsItem</title>
<g id="a_edge6"><a xlink:href="docs/idempotent.doEdit.html" xlink:title="doEdit, edit (idempotent)" target="_parent">
<path fill="none" stroke="black" d="M655.74,-21.9C755.68,-24.33 1001.93,-46.26 1100.57,-199 1180.69,-323.05 884.15,-339.57 760.41,-341.16"/>
<polygon fill="black" stroke="black" points="760.36,-337.66 750.4,-341.26 760.43,-344.66 760.36,-337.66"/>
</a>
</g>
<g id="a_edge6&#45;label"><a xlink:href="docs/idempotent.doEdit.html" xlink:title="doEdit, edit (idempotent)" target="_parent">
<text text-anchor="middle" x="1152.07" y="-170.6" font-family="Times,serif" font-size="13.00">doEdit, edit (idempotent)</text>
</a>
</g>
</g>
<!-- Index&#45;&gt;AlpsItem -->
<g id="edge7" class="edge">
<title>Index&#45;&gt;AlpsItem</title>
<g id="a_edge7"><a xlink:href="docs/safe.goAlpsItem.html" xlink:title="goAlpsItem, item (safe)" target="_parent">
<path fill="none" stroke="black" d="M434.73,-232.17C453.66,-239.13 477.87,-248.7 498.57,-259 509.29,-264.33 510.79,-267.82 521.57,-273 565.88,-294.28 618.7,-312.91 656.89,-325.27"/>
<polygon fill="black" stroke="black" points="656.16,-328.71 666.76,-328.42 658.3,-322.04 656.16,-328.71"/>
</a>
</g>
<g id="a_edge7&#45;label"><a xlink:href="docs/safe.goAlpsItem.html" xlink:title="goAlpsItem, item (safe)" target="_parent">
<text text-anchor="middle" x="585.07" y="-262.6" font-family="Times,serif" font-size="13.00">goAlpsItem, item (safe)</text>
</a>
</g>
</g>
<!-- Index&#45;&gt;Profile -->
<g id="edge8" class="edge">
<title>Index&#45;&gt;Profile</title>
<g id="a_edge8"><a xlink:href="docs/safe.goProfile.html" xlink:title="goProfile (safe)" target="_parent">
<path fill="none" stroke="black" d="M434.65,-214.27C463.79,-209.05 507.33,-198.92 541.57,-181 554.3,-174.34 566.79,-165.08 577.66,-155.85"/>
<polygon fill="black" stroke="black" points="580.06,-158.4 585.26,-149.17 575.44,-153.14 580.06,-158.4"/>
</a>
</g>
<g id="a_edge8&#45;label"><a xlink:href="docs/safe.goProfile.html" xlink:title="goProfile (safe)" target="_parent">
<text text-anchor="middle" x="604.57" y="-170.6" font-family="Times,serif" font-size="13.00">goProfile (safe)</text>
</a>
</g>
</g>
<!-- StateDiagram -->
<g id="node7" class="node">
<title>StateDiagram</title>
<g id="a_node7"><a xlink:href="docs/semantic.StateDiagram.html" xlink:title="StateDiagram" target="_parent">
<polygon fill="lightgray" stroke="black" stroke-width="2" points="230.57,-138.5 138.57,-138.5 138.57,-102.5 230.57,-102.5 230.57,-138.5"/>
<text text-anchor="middle" x="184.57" y="-116.8" font-family="Times,serif" font-size="14.00">StateDiagram</text>
</a>
</g>
</g>
<!-- Index&#45;&gt;StateDiagram -->
<g id="edge9" class="edge">
<title>Index&#45;&gt;StateDiagram</title>
<g id="a_edge9"><a xlink:href="docs/idempotent.doCreateStateDiagram.html" xlink:title="doCreateStateDiagram (idempotent)" target="_parent">
<path fill="none" stroke="black" d="M370.42,-217.44C318.52,-214.24 219.68,-205.08 195.57,-181 187.21,-172.65 184.07,-160.14 183.18,-148.74"/>
<polygon fill="black" stroke="black" points="186.68,-148.64 182.91,-138.74 179.68,-148.83 186.68,-148.64"/>
</a>
</g>
<g id="a_edge9&#45;label"><a xlink:href="docs/idempotent.doCreateStateDiagram.html" xlink:title="doCreateStateDiagram (idempotent)" target="_parent">
<text text-anchor="middle" x="293.07" y="-170.6" font-family="Times,serif" font-size="13.00">doCreateStateDiagram (idempotent)</text>
</a>
</g>
</g>
<!-- Profile&#45;&gt;AlpsItem -->
<g id="edge10" class="edge">
<title>Profile&#45;&gt;AlpsItem</title>
<path fill="none" stroke="black" d="M637.13,-149.27C641.34,-154.89 645.38,-160.94 648.57,-167 664.64,-197.46 660.48,-208.39 671.57,-241 676.03,-254.12 681.05,-268.11 685.91,-281.34"/>
<polygon fill="black" stroke="black" points="682.67,-282.66 689.42,-290.83 689.23,-280.23 682.67,-282.66"/>
<g id="a_edge10_2"><a xlink:href="docs/unsafe.doCreate.html" xlink:title="&lt;TABLE&gt;">
<text text-anchor="start" x="676.07" y="-226.6" font-family="Times,serif" font-size="13.00">doCreate (unsafe)</text>
</a>
</g>
<g id="a_edge10_3"><a xlink:href="docs/safe.goAlpsItem.html" xlink:title="&lt;TABLE&gt;">
<text text-anchor="start" x="676.07" y="-206.6" font-family="Times,serif" font-size="13.00">goAlpsItem (safe)</text>
</a>
</g>
</g>
<!-- Profile&#45;&gt;AlpsItemEdit -->
<g id="edge11" class="edge">
<title>Profile&#45;&gt;AlpsItemEdit</title>
<g id="a_edge11"><a xlink:href="docs/safe.goAlpsItemEdit.html" xlink:title="goAlpsItemEdit, edit&#45;form (safe)" target="_parent">
<path fill="none" stroke="black" d="M612.57,-91.82C612.57,-79.51 612.57,-64.97 612.57,-52.36"/>
<polygon fill="black" stroke="black" points="616.07,-52.31 612.57,-42.31 609.07,-52.31 616.07,-52.31"/>
</a>
</g>
<g id="a_edge11&#45;label"><a xlink:href="docs/safe.goAlpsItemEdit.html" xlink:title="goAlpsItemEdit, edit&#45;form (safe)" target="_parent">
<text text-anchor="middle" x="700.57" y="-63.6" font-family="Times,serif" font-size="13.00">goAlpsItemEdit, edit&#45;form (safe)</text>
</a>
</g>
</g>
<!-- Profile&#45;&gt;Index -->
<g id="edge12" class="edge">
<title>Profile&#45;&gt;Index</title>
<g id="a_edge12"><a xlink:href="docs/safe.goIndex.html" xlink:title="goIndex, collection (safe)" target="_parent">
<path fill="none" stroke="black" d="M580.2,-123.58C526.32,-127.78 421.93,-139.37 399.57,-167 394.63,-173.11 393.39,-181.07 393.91,-188.91"/>
<polygon fill="black" stroke="black" points="390.47,-189.63 395.43,-198.99 397.4,-188.58 390.47,-189.63"/>
</a>
</g>
<g id="a_edge12&#45;label"><a xlink:href="docs/safe.goIndex.html" xlink:title="goIndex, collection (safe)" target="_parent">
<text text-anchor="middle" x="468.57" y="-170.6" font-family="Times,serif" font-size="13.00">goIndex, collection (safe)</text>
</a>
</g>
</g>
</g>
</svg>
